<svg width="34" height="35" viewBox="0 0 34 35" fill="none" xmlns="http://www.w3.org/2000/svg">
<path d="M0 5.19514V10.1876H4.99248H9.98496V5.19514V0.202658H4.99248H0V5.19514ZM7.04297 5.19514V7.24562H4.99248H2.942V5.19514V3.14466H4.99248H7.04297V5.19514Z" fill="#4181E0"/>
<path d="M12.6595 1.67366V3.14466H15.4678H18.2761V6.66614V10.1876H19.7471H21.2181V5.19514V0.202658H16.9388H12.6595V1.67366Z" fill="#4181E0"/>
<path d="M23.8926 5.19514V10.1876H28.8851H33.8775V5.19514V0.202658H28.8851H23.8926V5.19514ZM30.9355 5.19514V7.24562H28.8851H26.8346V5.19514V3.14466H28.8851H30.9355V5.19514Z" fill="#4181E0"/>
<path d="M2.25848 14.8831V16.0123H3.95236H5.64624V14.8831V13.7538H3.95236H2.25848V14.8831Z" fill="#4181E0"/>
<path d="M16.0278 13.7829C14.8549 13.9277 13.9437 14.7125 13.6353 15.843C13.5606 16.1046 13.5512 16.3615 13.5512 17.847C13.5512 19.4213 13.5559 19.5661 13.64 19.7156C13.7568 19.9351 13.8503 20.0379 14.0185 20.1267C14.5325 20.3929 15.1259 20.1967 15.3549 19.6922C15.4343 19.524 15.4437 19.3512 15.4437 17.9404C15.4437 16.5203 15.453 16.3568 15.5325 16.1887C15.6353 15.9644 15.7848 15.8196 16.0138 15.7215C16.1586 15.6655 16.4483 15.6514 17.7427 15.6514C19.1445 15.6514 19.3174 15.6421 19.4856 15.5627C19.9903 15.3338 20.1865 14.7405 19.9202 14.2267C19.8314 14.0585 19.7286 13.9651 19.509 13.8483C19.3595 13.7689 19.2146 13.7595 17.8268 13.7548C16.9904 13.7502 16.182 13.7595 16.0278 13.7829Z" fill="#4181E0"/>
<path d="M28.1537 13.7782C27.7612 13.8623 27.4948 14.1145 27.4107 14.4836C27.3126 14.9274 27.5369 15.3805 27.9434 15.5627C28.1117 15.6421 28.2845 15.6514 29.6864 15.6514C30.9807 15.6514 31.2704 15.6655 31.4153 15.7215C31.6443 15.8196 31.7938 15.9644 31.8966 16.1887C31.976 16.3568 31.9854 16.5203 31.9854 17.9404C31.9854 19.3512 31.9947 19.524 32.0742 19.6922C32.3031 20.1967 32.8966 20.3929 33.4106 20.1267C33.5788 20.0379 33.6722 19.9351 33.7891 19.7156C33.8732 19.5661 33.8778 19.4259 33.8778 17.847C33.8778 16.3428 33.8685 16.1046 33.7937 15.8383C33.518 14.8713 32.7797 14.1239 31.8218 13.8529C31.5882 13.7829 31.2798 13.7689 29.9294 13.7548C29.0415 13.7502 28.2425 13.7595 28.1537 13.7782Z" fill="#4181E0"/>
<path d="M21.9035 27.1495L18.2334 23.7044C18.0129 23.4975 18.0129 23.1619 18.2334 22.9549L19.0319 22.2053C19.2524 21.9983 19.6099 21.9983 19.8304 22.2053L22.3027 24.5261L27.5982 19.5553C27.8187 19.3483 28.1762 19.3483 28.3967 19.5553L29.1952 20.3048C29.4157 20.5118 29.4157 20.8474 29.1952 21.0544L22.702 27.1496C22.4815 27.3565 22.124 27.3565 21.9035 27.1495Z" fill="#5D85EB"/>
<path d="M14.2569 27.615C14.0092 27.6757 13.7849 27.8532 13.6541 28.0914C13.5513 28.283 13.5513 28.3157 13.5513 29.9927C13.5513 31.4969 13.5606 31.7351 13.6354 32.0014C13.9111 32.9824 14.654 33.7205 15.6307 33.9914C15.897 34.0662 16.1353 34.0802 17.6399 34.0802C19.2193 34.0802 19.3595 34.0755 19.509 33.9914C19.7287 33.8747 19.8315 33.7812 19.9203 33.6131C20.1866 33.0992 19.9903 32.5059 19.4857 32.277C19.3175 32.1976 19.1446 32.1883 17.7427 32.1883C16.4484 32.1883 16.1587 32.1743 16.0138 32.1182C15.7849 32.0201 15.6353 31.8753 15.5325 31.6511C15.4531 31.4829 15.4437 31.3194 15.4437 29.9086C15.4437 28.1989 15.4391 28.1522 15.154 27.8579C14.9391 27.6383 14.5793 27.5402 14.2569 27.615Z" fill="#4181E0"/>
<path d="M32.6723 27.6291C32.4106 27.6992 32.1957 27.886 32.0742 28.1476C31.9947 28.3158 31.9854 28.4793 31.9854 29.8994C31.9854 31.3195 31.976 31.483 31.8966 31.6512C31.7938 31.8754 31.6443 32.0202 31.4153 32.1183C31.2705 32.1744 30.9807 32.1884 29.6864 32.1884C28.2846 32.1884 28.1117 32.1977 27.9434 32.2772C27.4388 32.5061 27.2425 33.0993 27.5089 33.6132C27.5977 33.7814 27.7005 33.8748 27.9201 33.9916C28.0696 34.0757 28.2098 34.0803 29.7892 34.0803C31.2938 34.0803 31.5321 34.0663 31.7985 33.9916C32.7751 33.7206 33.5181 32.9825 33.7938 32.0015C33.8685 31.7353 33.8779 31.497 33.8779 29.9928C33.8779 28.3392 33.8732 28.2831 33.7797 28.1009C33.5554 27.6898 33.1302 27.5076 32.6723 27.6291Z" fill="#4181E0"/>
<path d="M0 29.0878V34.0803H4.99248H9.98496V29.0878V24.0954H4.99248H0V29.0878ZM7.04297 29.0878V31.1383H4.99248H2.942V29.0878V27.0374H4.99248H7.04297V29.0878Z" fill="#4181E0"/>
<path d="M10.2227 17.6171V22.6096H7.36981H4.51696V21.1386V19.6676H5.89881H7.28066V16.1461V12.6247H8.75166H10.2227V17.6171Z" fill="#4181E0"/>
</svg>
