<svg width="34" height="35" viewBox="0 0 34 35" fill="none" xmlns="http://www.w3.org/2000/svg">
<path d="M0 5.79377V10.7863H4.99248H9.98496V5.79377V0.801291H4.99248H0V5.79377ZM7.04297 5.79377V7.84426H4.99248H2.942V5.79377V3.74329H4.99248H7.04297V5.79377Z" fill="#4181E0"/>
<path d="M12.6595 2.27229V3.74329H15.4678H18.2761V7.26477V10.7863H19.7471H21.2181V5.79377V0.801291H16.9388H12.6595V2.27229Z" fill="#4181E0"/>
<path d="M23.8926 5.79377V10.7863H28.8851H33.8775V5.79377V0.801291H28.8851H23.8926V5.79377ZM30.9355 5.79377V7.84426H28.8851H26.8346V5.79377V3.74329H28.8851H30.9355V5.79377Z" fill="#4181E0"/>
<path d="M2.25848 15.4817V16.611H3.95236H5.64624V15.4817V14.3525H3.95236H2.25848V15.4817Z" fill="#4181E0"/>
<path d="M16.0278 14.3815C14.8549 14.5263 13.9437 15.3111 13.6353 16.4416C13.5606 16.7032 13.5512 16.9601 13.5512 18.4456C13.5512 20.0199 13.5559 20.1647 13.64 20.3142C13.7568 20.5338 13.8503 20.6365 14.0185 20.7253C14.5325 20.9916 15.1259 20.7954 15.3549 20.2908C15.4343 20.1227 15.4437 19.9498 15.4437 18.5391C15.4437 17.119 15.453 16.9555 15.5325 16.7873C15.6353 16.5631 15.7848 16.4182 16.0138 16.3201C16.1586 16.2641 16.4483 16.2501 17.7427 16.2501C19.1445 16.2501 19.3174 16.2407 19.4856 16.1613C19.9903 15.9324 20.1865 15.3391 19.9202 14.8253C19.8314 14.6571 19.7286 14.5637 19.509 14.4469C19.3595 14.3675 19.2146 14.3581 17.8268 14.3535C16.9904 14.3488 16.182 14.3581 16.0278 14.3815Z" fill="#4181E0"/>
<path d="M28.1537 14.3768C27.7612 14.4609 27.4948 14.7132 27.4107 15.0822C27.3126 15.526 27.5369 15.9791 27.9434 16.1613C28.1117 16.2407 28.2845 16.2501 29.6864 16.2501C30.9807 16.2501 31.2704 16.2641 31.4153 16.3201C31.6443 16.4182 31.7938 16.5631 31.8966 16.7873C31.976 16.9555 31.9854 17.119 31.9854 18.5391C31.9854 19.9498 31.9947 20.1227 32.0742 20.2908C32.3031 20.7954 32.8966 20.9916 33.4106 20.7253C33.5788 20.6365 33.6722 20.5338 33.7891 20.3142C33.8732 20.1647 33.8778 20.0246 33.8778 18.4456C33.8778 16.9414 33.8685 16.7032 33.7937 16.4369C33.518 15.4699 32.7797 14.7225 31.8218 14.4516C31.5882 14.3815 31.2798 14.3675 29.9294 14.3535C29.0415 14.3488 28.2425 14.3581 28.1537 14.3768Z" fill="#4181E0"/>
<path d="M19.9094 21.1118C19.7296 21.1118 19.5537 21.1655 19.4042 21.2662C19.2546 21.3668 19.1381 21.5098 19.0692 21.6772C19.0004 21.8445 18.9824 22.0286 19.0175 22.2063C19.0526 22.3839 19.1392 22.5471 19.2664 22.6752C19.3936 22.8033 19.5556 22.8905 19.732 22.9258C19.9084 22.9611 20.0913 22.943 20.2575 22.8737C20.4236 22.8044 20.5657 22.687 20.6656 22.5364C20.7655 22.3858 20.8189 22.2087 20.8189 22.0276C20.8189 21.7847 20.7231 21.5518 20.5525 21.38C20.382 21.2083 20.1506 21.1118 19.9094 21.1118ZM19.9094 24.1645C19.7296 24.1645 19.5537 24.2182 19.4042 24.3188C19.2546 24.4194 19.1381 24.5625 19.0692 24.7298C19.0004 24.8971 18.9824 25.0813 19.0175 25.2589C19.0526 25.4366 19.1392 25.5998 19.2664 25.7278C19.3936 25.8559 19.5556 25.9431 19.732 25.9785C19.9084 26.0138 20.0913 25.9957 20.2575 25.9264C20.4236 25.857 20.5657 25.7397 20.6656 25.5891C20.7655 25.4385 20.8189 25.2614 20.8189 25.0803C20.8189 24.8374 20.7231 24.6044 20.5525 24.4327C20.382 24.261 20.1506 24.1645 19.9094 24.1645ZM19.9094 27.2171C19.7296 27.2171 19.5537 27.2708 19.4042 27.3715C19.2546 27.4721 19.1381 27.6151 19.0692 27.7825C19.0004 27.9498 18.9824 28.1339 19.0175 28.3116C19.0526 28.4892 19.1392 28.6524 19.2664 28.7805C19.3936 28.9086 19.5556 28.9958 19.732 29.0311C19.9084 29.0665 20.0913 29.0483 20.2575 28.979C20.4236 28.9097 20.5657 28.7923 20.6656 28.6417C20.7655 28.4911 20.8189 28.3141 20.8189 28.1329C20.8189 27.89 20.7231 27.6571 20.5525 27.4854C20.382 27.3136 20.1506 27.2171 19.9094 27.2171ZM28.3975 27.5224H22.3346C22.2542 27.5224 22.1771 27.5546 22.1202 27.6118C22.0634 27.6691 22.0315 27.7467 22.0315 27.8277V28.4382C22.0315 28.5192 22.0634 28.5968 22.1202 28.654C22.1771 28.7113 22.2542 28.7435 22.3346 28.7435H28.3975C28.4779 28.7435 28.555 28.7113 28.6119 28.654C28.6687 28.5968 28.7007 28.5192 28.7007 28.4382V27.8277C28.7007 27.7467 28.6687 27.6691 28.6119 27.6118C28.555 27.5546 28.4779 27.5224 28.3975 27.5224ZM28.3975 21.4171H22.3346C22.2542 21.4171 22.1771 21.4492 22.1202 21.5065C22.0634 21.5637 22.0315 21.6414 22.0315 21.7223V22.3329C22.0315 22.4138 22.0634 22.4915 22.1202 22.5487C22.1771 22.606 22.2542 22.6381 22.3346 22.6381H28.3975C28.4779 22.6381 28.555 22.606 28.6119 22.5487C28.6687 22.4915 28.7007 22.4138 28.7007 22.3329V21.7223C28.7007 21.6414 28.6687 21.5637 28.6119 21.5065C28.555 21.4492 28.4779 21.4171 28.3975 21.4171ZM28.3975 24.4697H22.3346C22.2542 24.4697 22.1771 24.5019 22.1202 24.5591C22.0634 24.6164 22.0315 24.694 22.0315 24.775V25.3855C22.0315 25.4665 22.0634 25.5441 22.1202 25.6014C22.1771 25.6586 22.2542 25.6908 22.3346 25.6908H28.3975C28.4779 25.6908 28.555 25.6586 28.6119 25.6014C28.6687 25.5441 28.7007 25.4665 28.7007 25.3855V24.775C28.7007 24.694 28.6687 24.6164 28.6119 24.5591C28.555 24.5019 28.4779 24.4697 28.3975 24.4697Z" fill="#5D85EB"/>
<path d="M14.2569 28.2136C14.0092 28.2743 13.7849 28.4518 13.6541 28.6901C13.5513 28.8816 13.5513 28.9143 13.5513 30.5913C13.5513 32.0955 13.5606 32.3338 13.6354 32.6001C13.9111 33.5811 14.654 34.3191 15.6307 34.5901C15.897 34.6648 16.1353 34.6788 17.6399 34.6788C19.2193 34.6788 19.3595 34.6742 19.509 34.5901C19.7287 34.4733 19.8315 34.3799 19.9203 34.2117C20.1866 33.6978 19.9903 33.1046 19.4857 32.8757C19.3175 32.7963 19.1446 32.7869 17.7427 32.7869C16.4484 32.7869 16.1587 32.7729 16.0138 32.7168C15.7849 32.6187 15.6353 32.4739 15.5325 32.2497C15.4531 32.0815 15.4437 31.918 15.4437 30.5073C15.4437 28.7975 15.4391 28.7508 15.154 28.4565C14.9391 28.237 14.5793 28.1389 14.2569 28.2136Z" fill="#4181E0"/>
<path d="M32.6723 28.2277C32.4106 28.2978 32.1957 28.4847 32.0742 28.7463C31.9947 28.9144 31.9854 29.0779 31.9854 30.498C31.9854 31.9181 31.976 32.0816 31.8966 32.2498C31.7938 32.474 31.6443 32.6189 31.4153 32.717C31.2705 32.773 30.9807 32.787 29.6864 32.787C28.2846 32.787 28.1117 32.7964 27.9434 32.8758C27.4388 33.1047 27.2425 33.698 27.5089 34.2118C27.5977 34.38 27.7005 34.4734 27.9201 34.5902C28.0696 34.6743 28.2098 34.679 29.7892 34.679C31.2938 34.679 31.5321 34.6649 31.7985 34.5902C32.7751 34.3193 33.5181 33.5812 33.7938 32.6002C33.8685 32.3339 33.8779 32.0957 33.8779 30.5915C33.8779 28.9378 33.8732 28.8817 33.7797 28.6995C33.5554 28.2885 33.1302 28.1063 32.6723 28.2277Z" fill="#4181E0"/>
<path d="M0 29.6865V34.679H4.99248H9.98496V29.6865V24.694H4.99248H0V29.6865ZM7.04297 29.6865V31.737H4.99248H2.942V29.6865V27.636H4.99248H7.04297V29.6865Z" fill="#4181E0"/>
<path d="M10.2227 18.2158V23.2083H7.36981H4.51696V21.7373V20.2663H5.89881H7.28066V16.7448V13.2233H8.75166H10.2227V18.2158Z" fill="#4181E0"/>
</svg>
