<svg width="21" height="21" viewBox="0 0 21 21" fill="none" xmlns="http://www.w3.org/2000/svg">
<path d="M2.47675 0.0290875C1.30389 0.173902 0.392696 0.958699 0.0842929 2.08918C0.00952864 2.35078 0.000183105 2.60771 0.000183105 4.09322C0.000183105 5.66749 0.00485587 5.8123 0.0889657 5.96179C0.205785 6.18134 0.29924 6.28411 0.46746 6.37287C0.981464 6.63914 1.57491 6.44294 1.80387 5.93843C1.88331 5.77026 1.89265 5.59741 1.89265 4.18665C1.89265 2.76654 1.902 2.60304 1.98144 2.43487C2.08424 2.21064 2.23377 2.06582 2.46273 1.96772C2.60759 1.91167 2.8973 1.89765 4.19166 1.89765C5.59349 1.89765 5.76638 1.88831 5.9346 1.8089C6.43926 1.58 6.63551 0.986728 6.36916 0.472872C6.28038 0.304701 6.17758 0.211273 5.95796 0.0944872C5.80843 0.0150733 5.66358 0.00573063 4.27576 0.00105906C3.43934 -0.00361252 2.63095 0.00573063 2.47675 0.0290875Z" fill="white"/>
<path d="M14.6027 0.0244155C14.2102 0.108501 13.9438 0.360757 13.8597 0.729799C13.7616 1.17358 13.9859 1.62671 14.3924 1.8089C14.5606 1.88831 14.7335 1.89765 16.1353 1.89765C17.4297 1.89765 17.7194 1.91167 17.8643 1.96772C18.0932 2.06582 18.2428 2.21064 18.3456 2.43487C18.425 2.60304 18.4343 2.76654 18.4343 4.18665C18.4343 5.59741 18.4437 5.77026 18.5231 5.93843C18.7521 6.44294 19.3455 6.63914 19.8595 6.37287C20.0278 6.28411 20.1212 6.18134 20.238 5.96179C20.3221 5.8123 20.3268 5.67216 20.3268 4.09322C20.3268 2.58902 20.3175 2.35078 20.2427 2.08451C19.967 1.11753 19.2287 0.3701 18.2708 0.0991583C18.0372 0.0290871 17.7288 0.0150728 16.3783 0.00105858C15.4905 -0.003613 14.6915 0.00572968 14.6027 0.0244155Z" fill="white"/>
<path d="M9.86913 4.65388C9.65419 4.71928 9.4112 4.93417 9.31775 5.13971C9.23831 5.31722 9.22896 5.47605 9.22896 7.27922V9.23187H7.28042C5.48608 9.23187 5.31318 9.24121 5.14029 9.32063C4.44872 9.63361 4.4347 10.652 5.11693 10.993C5.32253 11.1004 5.34589 11.1004 7.27575 11.1004H9.22896V13.0531C9.22896 14.9824 9.22896 15.0057 9.33644 15.2113C9.67755 15.8933 10.6962 15.8793 11.0093 15.1879C11.0887 15.0151 11.0981 14.8422 11.0981 13.0484V11.1004H13.0513C14.9811 11.1004 15.0045 11.1004 15.2101 10.993C15.3316 10.9323 15.4765 10.8061 15.5606 10.6894C15.6821 10.5118 15.7007 10.4464 15.7007 10.1662C15.7007 9.88587 15.6821 9.82047 15.5606 9.64295C15.4765 9.52617 15.3316 9.40004 15.2101 9.33464C15.0045 9.23187 14.9811 9.23187 13.0513 9.23187H11.0981V7.27922C11.0981 5.49007 11.0887 5.31722 11.0093 5.14438C10.8224 4.72395 10.3317 4.51374 9.86913 4.65388Z" fill="white"/>
<path d="M0.705832 13.8612C0.458175 13.9219 0.233883 14.0994 0.103045 14.3377C0.000244141 14.5292 0.000244141 14.5619 0.000244141 16.2389C0.000244141 17.7431 0.00958967 17.9814 0.0843539 18.2476C0.360047 19.2286 1.10302 19.9667 2.07963 20.2377C2.34597 20.3124 2.58428 20.3264 4.08892 20.3264C5.66831 20.3264 5.80849 20.3217 5.95802 20.2377C6.17764 20.1209 6.28044 20.0274 6.36923 19.8593C6.63557 19.3454 6.43932 18.7521 5.93466 18.5232C5.76644 18.4438 5.59355 18.4345 4.19172 18.4345C2.89736 18.4345 2.60765 18.4205 2.46279 18.3644C2.23383 18.2663 2.0843 18.1215 1.9815 17.8973C1.90206 17.7291 1.89271 17.5656 1.89271 16.1548C1.89271 14.4451 1.88804 14.3984 1.603 14.1041C1.38806 13.8845 1.02825 13.7864 0.705832 13.8612Z" fill="white"/>
<path d="M19.1213 13.8753C18.8596 13.9454 18.6446 14.1322 18.5231 14.3938C18.4437 14.562 18.4344 14.7255 18.4344 16.1456C18.4344 17.5657 18.425 17.7292 18.3456 17.8974C18.2428 18.1216 18.0933 18.2664 17.8643 18.3645C17.7194 18.4206 17.4297 18.4346 16.1354 18.4346C14.7335 18.4346 14.5606 18.444 14.3924 18.5234C13.8878 18.7523 13.6915 19.3455 13.9579 19.8594C14.0466 20.0276 14.1494 20.121 14.3691 20.2378C14.5186 20.3219 14.6588 20.3265 16.2382 20.3265C17.7428 20.3265 17.9811 20.3125 18.2475 20.2378C19.2241 19.9668 19.967 19.2288 20.2427 18.2478C20.3175 17.9815 20.3268 17.7432 20.3268 16.239C20.3268 14.5854 20.3222 14.5293 20.2287 14.3471C20.0044 13.936 19.5792 13.7539 19.1213 13.8753Z" fill="white"/>
</svg>
