<svg width="33" height="33" viewBox="0 0 33 33" fill="none" xmlns="http://www.w3.org/2000/svg">
<path d="M11.3718 31.2814H5.8168C3.05305 31.2814 1.7193 30.0026 1.7193 27.3626V5.63762C1.7193 2.99762 3.0668 1.71887 5.8168 1.71887H11.3718C14.1356 1.71887 15.4693 2.99762 15.4693 5.63762V27.3626C15.4693 30.0026 14.1218 31.2814 11.3718 31.2814ZM5.8168 3.78137C4.07055 3.78137 3.7818 4.24887 3.7818 5.63762V27.3626C3.7818 28.7514 4.07055 29.2189 5.8168 29.2189H11.3718C13.1181 29.2189 13.4068 28.7514 13.4068 27.3626V5.63762C13.4068 4.24887 13.1181 3.78137 11.3718 3.78137H5.8168Z" fill="white"/>
<path d="M27.1836 18.9064H21.6286C18.8648 18.9064 17.5311 17.6276 17.5311 14.9876V5.63762C17.5311 2.99762 18.8786 1.71887 21.6286 1.71887H27.1836C29.9473 1.71887 31.2811 2.99762 31.2811 5.63762V14.9876C31.2811 17.6276 29.9336 18.9064 27.1836 18.9064ZM21.6286 3.78137C19.8823 3.78137 19.5936 4.24887 19.5936 5.63762V14.9876C19.5936 16.3764 19.8823 16.8439 21.6286 16.8439H27.1836C28.9298 16.8439 29.2186 16.3764 29.2186 14.9876V5.63762C29.2186 4.24887 28.9298 3.78137 27.1836 3.78137H21.6286Z" fill="white"/>
<path d="M27.1836 31.2806H21.6286C18.8648 31.2806 17.5311 30.0019 17.5311 27.3619V24.8869C17.5311 22.2469 18.8786 20.9681 21.6286 20.9681H27.1836C29.9473 20.9681 31.2811 22.2469 31.2811 24.8869V27.3619C31.2811 30.0019 29.9336 31.2806 27.1836 31.2806ZM21.6286 23.0306C19.8823 23.0306 19.5936 23.4981 19.5936 24.8869V27.3619C19.5936 28.7506 19.8823 29.2181 21.6286 29.2181H27.1836C28.9298 29.2181 29.2186 28.7506 29.2186 27.3619V24.8869C29.2186 23.4981 28.9298 23.0306 27.1836 23.0306H21.6286Z" fill="white"/>
</svg>
