<svg width="97" height="97" viewBox="0 0 97 97" fill="none" xmlns="http://www.w3.org/2000/svg">
<g filter="url(#filter0_d_220_7732)">
<rect x="10" y="10.0001" width="77" height="77" rx="15" fill="url(#paint0_linear_220_7732)"/>
<rect x="10.6775" y="10.6777" width="75.6449" height="75.6449" rx="14.3225" stroke="#00CEDB" stroke-width="1.3551"/>
</g>
<path d="M26.4099 32.9677V39.2697H32.7118H39.0138V32.9677V26.6657H32.7118H26.4099V32.9677ZM35.3002 32.9677V35.556H32.7118H30.1235V32.9677V30.3794H32.7118H35.3002V32.9677Z" fill="white"/>
<path d="M42.39 28.5225V30.3794H45.9348H49.4797V34.8245V39.2697H51.3365H53.1934V32.9677V26.6657H47.7917H42.39V28.5225Z" fill="white"/>
<path d="M56.5694 32.9677V39.2697H62.8714H69.1733V32.9677V26.6657H62.8714H56.5694V32.9677ZM65.4597 32.9677V35.556H62.8714H60.283V32.9677V30.3794H62.8714H65.4597V32.9677Z" fill="white"/>
<path d="M29.2607 45.1966V46.6221H31.3989H33.5371V45.1966V43.7712H31.3989H29.2607V45.1966Z" fill="white"/>
<path d="M46.6417 43.8079C45.1612 43.9907 44.011 44.9814 43.6217 46.4084C43.5273 46.7386 43.5155 47.0629 43.5155 48.9381C43.5155 50.9253 43.5214 51.1081 43.6276 51.2968C43.775 51.5739 43.893 51.7036 44.1053 51.8157C44.7542 52.1518 45.5033 51.9041 45.7923 51.2673C45.8926 51.055 45.9044 50.8368 45.9044 49.056C45.9044 47.2634 45.9162 47.057 46.0164 46.8447C46.1462 46.5617 46.3349 46.3789 46.624 46.2551C46.8068 46.1843 47.1725 46.1666 48.8064 46.1666C50.5759 46.1666 50.7941 46.1548 51.0065 46.0546C51.6435 45.7656 51.8912 45.0168 51.555 44.3681C51.443 44.1558 51.3132 44.0379 51.036 43.8905C50.8472 43.7903 50.6644 43.7785 48.9125 43.7726C47.8567 43.7667 46.8363 43.7785 46.6417 43.8079Z" fill="white"/>
<path d="M61.9481 43.802C61.4527 43.9082 61.1165 44.2266 61.0103 44.6924C60.8864 45.2526 61.1695 45.8246 61.6827 46.0546C61.895 46.1548 62.1133 46.1666 63.8828 46.1666C65.5167 46.1666 65.8824 46.1843 66.0652 46.2551C66.3542 46.3789 66.543 46.5617 66.6728 46.8447C66.773 47.057 66.7848 47.2634 66.7848 49.056C66.7848 50.8368 66.7966 51.055 66.8969 51.2673C67.1859 51.9041 67.935 52.1518 68.5838 51.8157C68.7962 51.7036 68.9142 51.5739 69.0616 51.2968C69.1678 51.1081 69.1737 50.9312 69.1737 48.9381C69.1737 47.0393 69.1619 46.7386 69.0675 46.4025C68.7195 45.1819 67.7876 44.2384 66.5784 43.8964C66.2835 43.8079 65.8942 43.7903 64.1895 43.7726C63.0688 43.7667 62.0602 43.7785 61.9481 43.802Z" fill="white"/>
<path d="M54.0585 60.6806L49.4258 56.3319C49.1475 56.0706 49.1475 55.647 49.4258 55.3857L50.4337 54.4396C50.712 54.1783 51.1633 54.1783 51.4417 54.4396L54.5625 57.369L61.2469 51.0944C61.5252 50.8331 61.9765 50.8331 62.2549 51.0944L63.2628 52.0405C63.5411 52.3018 63.5411 52.7254 63.2628 52.9867L55.0664 60.6806C54.7881 60.9419 54.3368 60.9419 54.0585 60.6806Z" fill="white"/>
<path d="M44.4062 61.2682C44.0936 61.3448 43.8105 61.5689 43.6453 61.8696C43.5156 62.1114 43.5156 62.1527 43.5156 64.2696C43.5156 66.1683 43.5274 66.4691 43.6217 66.8052C43.9697 68.0435 44.9076 68.9752 46.1404 69.3172C46.4766 69.4115 46.7774 69.4292 48.6767 69.4292C50.6703 69.4292 50.8473 69.4233 51.036 69.3172C51.3133 69.1697 51.443 69.0518 51.5551 68.8395C51.8913 68.1909 51.6436 67.442 51.0065 67.1531C50.7942 67.0528 50.576 67.041 48.8064 67.041C47.1726 67.041 46.8069 67.0233 46.624 66.9526C46.335 66.8288 46.1463 66.646 46.0165 66.3629C45.9162 66.1506 45.9044 65.9442 45.9044 64.1634C45.9044 62.0052 45.8985 61.9463 45.5387 61.5748C45.2674 61.2976 44.8132 61.1738 44.4062 61.2682Z" fill="white"/>
<path d="M67.6519 61.286C67.3216 61.3744 67.0502 61.6103 66.8969 61.9405C66.7966 62.1528 66.7848 62.3592 66.7848 64.1518C66.7848 65.9444 66.773 66.1508 66.6728 66.363C66.543 66.6461 66.3542 66.8289 66.0652 66.9527C65.8824 67.0235 65.5167 67.0412 63.8828 67.0412C62.1133 67.0412 61.895 67.0529 61.6827 67.1532C61.0457 67.4421 60.7979 68.191 61.1341 68.8397C61.2462 69.0519 61.376 69.1699 61.6532 69.3173C61.842 69.4234 62.0189 69.4293 64.0126 69.4293C65.9119 69.4293 66.2127 69.4116 66.5489 69.3173C67.7817 68.9753 68.7195 68.0436 69.0675 66.8053C69.1619 66.4692 69.1737 66.1684 69.1737 64.2697C69.1737 62.1823 69.1678 62.1115 69.0498 61.8815C68.7667 61.3626 68.2299 61.1327 67.6519 61.286Z" fill="white"/>
<path d="M26.4099 63.1272V69.4292H32.7118H39.0138V63.1272V56.8252H32.7118H26.4099V63.1272ZM35.3002 63.1272V65.7155H32.7118H30.1235V63.1272V60.5389H32.7118H35.3002V63.1272Z" fill="white"/>
<path d="M39.3139 48.6478V54.9498H35.7128H32.1116V53.093V51.2362H33.8559H35.6002V46.791V42.3459H37.4571H39.3139V48.6478Z" fill="white"/>
<defs>
<filter id="filter0_d_220_7732" x="0" y="0.00012207" width="97" height="97" filterUnits="userSpaceOnUse" color-interpolation-filters="sRGB">
<feFlood flood-opacity="0" result="BackgroundImageFix"/>
<feColorMatrix in="SourceAlpha" type="matrix" values="0 0 0 0 0 0 0 0 0 0 0 0 0 0 0 0 0 0 127 0" result="hardAlpha"/>
<feOffset/>
<feGaussianBlur stdDeviation="5"/>
<feComposite in2="hardAlpha" operator="out"/>
<feColorMatrix type="matrix" values="0 0 0 0 0 0 0 0 0 0 0 0 0 0 0 0 0 0 0.28 0"/>
<feBlend mode="normal" in2="BackgroundImageFix" result="effect1_dropShadow_220_7732"/>
<feBlend mode="normal" in="SourceGraphic" in2="effect1_dropShadow_220_7732" result="shape"/>
</filter>
<linearGradient id="paint0_linear_220_7732" x1="87" y1="67.7501" x2="10" y2="67.7501" gradientUnits="userSpaceOnUse">
<stop stop-color="#356ABA"/>
<stop offset="1" stop-color="#4181E0"/>
</linearGradient>
</defs>
</svg>
