<svg width="97" height="97" viewBox="0 0 97 97" fill="none" xmlns="http://www.w3.org/2000/svg">
<g filter="url(#filter0_d_220_7711)">
<rect x="10" y="10.0001" width="77" height="77" rx="15" fill="url(#paint0_linear_220_7711)"/>
<rect x="10.6775" y="10.6777" width="75.6449" height="75.6449" rx="14.3225" stroke="#00CEDB" stroke-width="1.3551"/>
</g>
<path d="M25.2308 31.8765V38.6252H31.9796H38.7284V31.8765V25.1277H31.9796H25.2308V31.8765ZM34.7514 31.8765V34.6483H31.9796H29.2078V31.8765V29.1046H31.9796H34.7514V31.8765Z" fill="white"/>
<path d="M42.3438 27.1162V29.1046H46.14H49.9362V33.8649V38.6252H51.9247H53.9132V31.8765V25.1277H48.1285H42.3438V27.1162Z" fill="white"/>
<path d="M57.5285 31.8765V38.6252H64.2773H71.0261V31.8765V25.1277H64.2773H57.5285V31.8765ZM67.0491 31.8765V34.6483H64.2773H61.5055V31.8765V29.1046H64.2773H67.0491V31.8765Z" fill="white"/>
<path d="M28.2838 44.9725V46.499H30.5736H32.8633V44.9725V43.446H30.5736H28.2838V44.9725Z" fill="white"/>
<path d="M46.8971 43.4852C45.3116 43.6809 44.0799 44.7418 43.663 46.27C43.5619 46.6236 43.5493 46.9709 43.5493 48.979C43.5493 51.1071 43.5556 51.3029 43.6693 51.5049C43.8272 51.8017 43.9535 51.9407 44.1809 52.0606C44.8758 52.4206 45.678 52.1554 45.9875 51.4734C46.0949 51.246 46.1075 51.0124 46.1075 49.1053C46.1075 47.1856 46.1201 46.9646 46.2275 46.7373C46.3665 46.4342 46.5686 46.2384 46.8781 46.1058C47.0739 46.03 47.4656 46.0111 49.2153 46.0111C51.1102 46.0111 51.3439 45.9985 51.5713 45.8911C52.2535 45.5817 52.5188 44.7797 52.1588 44.0851C52.0388 43.8578 51.8998 43.7315 51.6029 43.5736C51.4008 43.4662 51.205 43.4536 49.329 43.4473C48.1983 43.441 47.1055 43.4536 46.8971 43.4852Z" fill="white"/>
<path d="M63.2887 43.4789C62.7581 43.5925 62.3981 43.9335 62.2844 44.4324C62.1517 45.0323 62.4549 45.6448 63.0045 45.8911C63.2319 45.9985 63.4656 46.0111 65.3606 46.0111C67.1103 46.0111 67.5019 46.03 67.6977 46.1058C68.0072 46.2384 68.2094 46.4342 68.3483 46.7373C68.4557 46.9646 68.4683 47.1856 68.4683 49.1053C68.4683 51.0124 68.481 51.246 68.5884 51.4734C68.8979 52.1554 69.7001 52.4206 70.3949 52.0606C70.6223 51.9407 70.7486 51.8017 70.9065 51.5049C71.0202 51.3029 71.0266 51.1134 71.0266 48.979C71.0266 46.9457 71.0139 46.6236 70.9129 46.2637C70.5402 44.9565 69.5422 43.9462 68.2473 43.5799C67.9314 43.4852 67.5145 43.4662 65.689 43.4473C64.4889 43.441 63.4087 43.4536 63.2887 43.4789Z" fill="white"/>
<path d="M52.1442 52.583C51.9011 52.583 51.6634 52.6556 51.4612 52.7916C51.2591 52.9277 51.1015 53.121 51.0084 53.3472C50.9154 53.5734 50.8911 53.8223 50.9385 54.0625C50.9859 54.3026 51.103 54.5232 51.2749 54.6963C51.4469 54.8695 51.6659 54.9874 51.9044 55.0351C52.1429 55.0829 52.3901 55.0584 52.6147 54.9647C52.8393 54.871 53.0313 54.7123 53.1664 54.5087C53.3015 54.3052 53.3736 54.0658 53.3736 53.821C53.3736 53.4926 53.2441 53.1778 53.0135 52.9456C52.783 52.7134 52.4703 52.583 52.1442 52.583ZM52.1442 56.7096C51.9011 56.7096 51.6634 56.7822 51.4612 56.9182C51.2591 57.0542 51.1015 57.2476 51.0084 57.4738C50.9154 57.7 50.8911 57.9489 50.9385 58.189C50.9859 58.4292 51.103 58.6498 51.2749 58.8229C51.4469 58.996 51.6659 59.1139 51.9044 59.1617C52.1429 59.2095 52.3901 59.1849 52.6147 59.0912C52.8393 58.9976 53.0313 58.8389 53.1664 58.6353C53.3015 58.4317 53.3736 58.1924 53.3736 57.9475C53.3736 57.6192 53.2441 57.3043 53.0135 57.0721C52.783 56.84 52.4703 56.7096 52.1442 56.7096ZM52.1442 60.8361C51.9011 60.8361 51.6634 60.9087 51.4612 61.0447C51.2591 61.1808 51.1015 61.3741 51.0084 61.6003C50.9154 61.8265 50.8911 62.0754 50.9385 62.3156C50.9859 62.5557 51.103 62.7763 51.2749 62.9494C51.4469 63.1226 51.6659 63.2405 51.9044 63.2882C52.1429 63.336 52.3901 63.3115 52.6147 63.2178C52.8393 63.1241 53.0313 62.9654 53.1664 62.7618C53.3015 62.5583 53.3736 62.3189 53.3736 62.0741C53.3736 61.7457 53.2441 61.4309 53.0135 61.1987C52.783 60.9665 52.4703 60.8361 52.1442 60.8361ZM63.6183 61.2488H55.4225C55.3139 61.2488 55.2096 61.2922 55.1328 61.3696C55.0559 61.447 55.0128 61.552 55.0128 61.6614V62.4867C55.0128 62.5962 55.0559 62.7011 55.1328 62.7785C55.2096 62.8559 55.3139 62.8994 55.4225 62.8994H63.6183C63.727 62.8994 63.8312 62.8559 63.9081 62.7785C63.9849 62.7011 64.0281 62.5962 64.0281 62.4867V61.6614C64.0281 61.552 63.9849 61.447 63.9081 61.3696C63.8312 61.2922 63.727 61.2488 63.6183 61.2488ZM63.6183 52.9957H55.4225C55.3139 52.9957 55.2096 53.0391 55.1328 53.1165C55.0559 53.1939 55.0128 53.2989 55.0128 53.4083V54.2336C55.0128 54.3431 55.0559 54.448 55.1328 54.5254C55.2096 54.6028 55.3139 54.6463 55.4225 54.6463H63.6183C63.727 54.6463 63.8312 54.6028 63.9081 54.5254C63.9849 54.448 64.0281 54.3431 64.0281 54.2336V53.4083C64.0281 53.2989 63.9849 53.1939 63.9081 53.1165C63.8312 53.0391 63.727 52.9957 63.6183 52.9957ZM63.6183 57.1222H55.4225C55.3139 57.1222 55.2096 57.1657 55.1328 57.2431C55.0559 57.3205 55.0128 57.4254 55.0128 57.5349V58.3602C55.0128 58.4696 55.0559 58.5746 55.1328 58.652C55.2096 58.7294 55.3139 58.7728 55.4225 58.7728H63.6183C63.727 58.7728 63.8312 58.7294 63.9081 58.652C63.9849 58.5746 64.0281 58.4696 64.0281 58.3602V57.5349C64.0281 57.4254 63.9849 57.3205 63.9081 57.2431C63.8312 57.1657 63.727 57.1222 63.6183 57.1222Z" fill="white"/>
<path d="M44.5031 62.1833C44.1683 62.2654 43.8651 62.5054 43.6883 62.8274C43.5493 63.0863 43.5493 63.1306 43.5493 65.3976C43.5493 67.4309 43.5619 67.753 43.663 68.1129C44.0357 69.439 45.04 70.4367 46.3602 70.803C46.7202 70.904 47.0424 70.923 49.0763 70.923C51.2113 70.923 51.4008 70.9167 51.603 70.803C51.8998 70.6451 52.0388 70.5188 52.1588 70.2915C52.5189 69.5969 52.2536 68.7949 51.5714 68.4855C51.344 68.3781 51.1103 68.3655 49.2153 68.3655C47.4656 68.3655 47.074 68.3465 46.8782 68.2708C46.5686 68.1382 46.3665 67.9424 46.2275 67.6393C46.1202 67.412 46.1075 67.1909 46.1075 65.2839C46.1075 62.9727 46.1012 62.9095 45.7159 62.5117C45.4253 62.2149 44.939 62.0823 44.5031 62.1833Z" fill="white"/>
<path d="M69.3968 62.2024C69.0431 62.2971 68.7525 62.5497 68.5883 62.9033C68.4809 63.1307 68.4683 63.3517 68.4683 65.2714C68.4683 67.1911 68.4557 67.4121 68.3483 67.6394C68.2093 67.9425 68.0072 68.1383 67.6977 68.2709C67.5018 68.3467 67.1102 68.3656 65.3605 68.3656C63.4655 68.3656 63.2318 68.3782 63.0044 68.4856C62.3222 68.795 62.0569 69.597 62.417 70.2916C62.537 70.519 62.676 70.6452 62.9728 70.8031C63.175 70.9168 63.3645 70.9231 65.4995 70.9231C67.5334 70.9231 67.8556 70.9042 68.2156 70.8031C69.5358 70.4369 70.5401 69.4391 70.9128 68.113C71.0139 67.7531 71.0265 67.431 71.0265 65.3977C71.0265 63.1622 71.0202 63.0865 70.8939 62.8402C70.5907 62.2845 70.0159 62.0382 69.3968 62.2024Z" fill="white"/>
<path d="M25.2308 64.1743V70.9231H31.9796H38.7284V64.1743V57.4255H31.9796H25.2308V64.1743ZM34.7514 64.1743V66.9461H31.9796H29.2077V64.1743V61.4025H31.9796H34.7514V64.1743Z" fill="white"/>
<path d="M39.0497 48.6682V55.417H35.1933H31.3368V53.4285V51.44H33.2048H35.0728V46.6797V41.9194H37.0612H39.0497V48.6682Z" fill="white"/>
<defs>
<filter id="filter0_d_220_7711" x="0" y="0.00012207" width="97" height="97" filterUnits="userSpaceOnUse" color-interpolation-filters="sRGB">
<feFlood flood-opacity="0" result="BackgroundImageFix"/>
<feColorMatrix in="SourceAlpha" type="matrix" values="0 0 0 0 0 0 0 0 0 0 0 0 0 0 0 0 0 0 127 0" result="hardAlpha"/>
<feOffset/>
<feGaussianBlur stdDeviation="5"/>
<feComposite in2="hardAlpha" operator="out"/>
<feColorMatrix type="matrix" values="0 0 0 0 0 0 0 0 0 0 0 0 0 0 0 0 0 0 0.28 0"/>
<feBlend mode="normal" in2="BackgroundImageFix" result="effect1_dropShadow_220_7711"/>
<feBlend mode="normal" in="SourceGraphic" in2="effect1_dropShadow_220_7711" result="shape"/>
</filter>
<linearGradient id="paint0_linear_220_7711" x1="87" y1="67.7501" x2="10" y2="67.7501" gradientUnits="userSpaceOnUse">
<stop stop-color="#356ABA"/>
<stop offset="1" stop-color="#4181E0"/>
</linearGradient>
</defs>
</svg>
