<svg width="97" height="97" viewBox="0 0 97 97" fill="none" xmlns="http://www.w3.org/2000/svg">
<g filter="url(#filter0_d_220_7753)">
<rect x="10" y="10.0001" width="77" height="77" rx="15" fill="url(#paint0_linear_220_7753)"/>
<rect x="10.6775" y="10.6777" width="75.6449" height="75.6449" rx="14.3225" stroke="#00CEDB" stroke-width="1.3551"/>
</g>
<path d="M26.4099 33.4743V39.7762H32.7118H39.0138V33.4743V27.1723H32.7118H26.4099V33.4743ZM35.3002 33.4743V36.0626H32.7118H30.1235V33.4743V30.8859H32.7118H35.3002V33.4743Z" fill="white"/>
<path d="M42.39 29.0291V30.8859H45.9348H49.4797V35.3311V39.7762H51.3365H53.1934V33.4743V27.1723H47.7917H42.39V29.0291Z" fill="white"/>
<path d="M56.5694 33.4743V39.7762H62.8714H69.1734V33.4743V27.1723H62.8714H56.5694V33.4743ZM65.4597 33.4743V36.0626H62.8714H60.2831V33.4743V30.8859H62.8714H65.4597V33.4743Z" fill="white"/>
<path d="M29.2607 45.7033V47.1288H31.3989H33.5371V45.7033V44.2779H31.3989H29.2607V45.7033Z" fill="white"/>
<path d="M46.6415 44.3145C45.161 44.4973 44.0108 45.488 43.6216 46.915C43.5272 47.2452 43.5154 47.5695 43.5154 49.4447C43.5154 51.4319 43.5213 51.6147 43.6275 51.8034C43.7749 52.0805 43.8929 52.2102 44.1052 52.3223C44.754 52.6584 45.5031 52.4107 45.7922 51.7739C45.8924 51.5616 45.9042 51.3434 45.9042 49.5626C45.9042 47.77 45.916 47.5636 46.0163 47.3513C46.1461 47.0683 46.3348 46.8855 46.6238 46.7617C46.8067 46.6909 47.1724 46.6732 48.8063 46.6732C50.5758 46.6732 50.794 46.6614 51.0064 46.5612C51.6434 46.2722 51.8911 45.5234 51.5549 44.8747C51.4428 44.6624 51.3131 44.5445 51.0359 44.3971C50.8471 44.2968 50.6643 44.2851 48.9124 44.2792C47.8566 44.2733 46.8362 44.2851 46.6415 44.3145Z" fill="white"/>
<path d="M61.9481 44.3086C61.4526 44.4148 61.1164 44.7332 61.0103 45.199C60.8864 45.7592 61.1695 46.3312 61.6827 46.5612C61.895 46.6614 62.1133 46.6732 63.8828 46.6732C65.5166 46.6732 65.8823 46.6909 66.0652 46.7617C66.3542 46.8855 66.543 47.0683 66.6727 47.3513C66.773 47.5636 66.7848 47.77 66.7848 49.5626C66.7848 51.3434 66.7966 51.5616 66.8969 51.7739C67.1859 52.4107 67.935 52.6584 68.5838 52.3223C68.7962 52.2102 68.9141 52.0805 69.0616 51.8033C69.1678 51.6147 69.1737 51.4378 69.1737 49.4447C69.1737 47.5459 69.1619 47.2452 69.0675 46.9091C68.7195 45.6885 67.7875 44.745 66.5784 44.403C66.2834 44.3145 65.8941 44.2968 64.1895 44.2792C63.0688 44.2733 62.0602 44.2851 61.9481 44.3086Z" fill="white"/>
<path d="M53.3848 61.448C50.8714 63.9614 50.6021 64.2474 50.308 64.2757C50.2541 64.2809 50.1995 64.2775 50.13 64.2775C49.8253 64.2775 49.5976 64.1837 49.4067 63.9795M53.3848 61.448L54.6506 57.3393L51.965 60.0248C49.4458 62.544 49.164 62.8138 49.1369 63.1071C49.132 63.1604 49.1355 63.2145 49.1355 63.283C49.1355 63.5743 49.2092 63.7652 49.4067 63.9795M53.3848 61.448L56.0737 58.7624L53.3848 61.448ZM49.4067 63.9795L49.8451 63.5698C49.8456 63.5703 49.846 63.5708 49.8464 63.5712M49.4067 63.9795L49.8479 63.5728C49.8474 63.5723 49.8469 63.5717 49.8464 63.5712M49.8464 63.5712C49.9124 63.6414 49.9757 63.6775 50.13 63.6775C50.1759 63.6775 50.2059 63.6774 50.2246 63.6775M49.8464 63.5712C49.7847 63.504 49.7651 63.4655 49.7563 63.4427C49.7473 63.4195 49.7355 63.377 49.7355 63.283C49.7355 63.2372 49.7355 63.2072 49.7354 63.1885M50.2246 63.6775L50.0377 51.0002C50.0386 51 50.0394 50.9999 50.0403 50.9998M50.2246 63.6775C50.2519 63.6595 50.3109 63.6172 50.4168 63.5251C50.7475 63.2375 51.3349 62.6498 52.5564 61.4279C52.684 61.3003 52.8186 61.1656 52.9605 61.0237L52.9608 61.0234L55.6497 58.3379L56.074 57.9141L56.498 58.3381L59.1835 61.0237C59.2817 61.1219 59.3764 61.2166 59.4677 61.308C60.7726 62.613 61.3889 63.2295 61.7306 63.5257C61.8364 63.6174 61.8955 63.6596 61.9229 63.6776C61.9416 63.6775 61.9716 63.6775 62.0174 63.6775C62.1114 63.6775 62.1539 63.6657 62.1771 63.6567C62.2001 63.6478 62.2389 63.628 62.3072 63.5651L62.3081 63.5643C62.3761 63.5018 62.4152 63.434 62.4152 63.283C62.4152 63.2391 62.4152 63.21 62.4152 63.1916C62.3971 63.164 62.3546 63.1047 62.2622 62.9985C61.9656 62.6571 61.3495 62.0418 60.0484 60.7424C59.9553 60.6494 59.8586 60.5529 59.7583 60.4527L59.7578 60.4522L57.0723 57.7633L56.6486 57.339L57.0726 56.915L59.7579 54.2297C59.8776 54.1098 59.9922 53.9951 60.1018 53.8854C61.3645 52.6216 61.9668 52.0188 62.2591 51.682C62.3515 51.5756 62.3939 51.5163 62.4119 51.4888C62.4118 51.4703 62.4119 51.4407 62.4119 51.3956C62.4119 51.1463 62.2606 50.9977 62.0174 50.9977C61.9742 50.9977 61.9455 50.9978 61.9272 50.9977C61.8996 51.0159 61.8401 51.0587 61.7331 51.1517C61.3968 51.4444 60.7951 52.0462 59.5368 53.3049C59.4254 53.4163 59.3088 53.5329 59.1868 53.6549L59.1866 53.6551L56.4977 56.3407L56.0737 56.7641L55.6497 56.3407L52.9475 53.6418C51.7791 52.475 51.1019 51.8021 50.7006 51.4153C50.4986 51.2205 50.3757 51.1073 50.2992 51.0421C50.2861 51.031 50.2754 51.0221 50.2667 51.0152M50.2246 63.6775L50.2667 51.0152M49.7354 63.1885C49.7266 63.202 49.7236 63.2078 49.7235 63.2077C49.7234 63.2077 49.7243 63.2057 49.7255 63.2022C49.7308 63.1872 49.7333 63.1615 49.7344 63.1615C49.7351 63.1616 49.7353 63.1688 49.7354 63.1885ZM49.7354 63.1885C49.7534 63.1611 49.7956 63.102 49.8873 62.9962C50.1835 62.6545 50.8 62.0382 52.105 60.7333C52.1963 60.642 52.2911 60.5473 52.3893 60.4491L55.0748 57.7635L55.4988 57.3395L55.0751 56.9153L52.3896 54.2264L52.3893 54.2261C52.2673 54.1042 52.1508 53.9876 52.0393 53.8762C50.7806 52.6178 50.1789 52.0162 49.8862 51.6798C49.7931 51.5729 49.7504 51.5133 49.7322 51.4857M49.7322 51.4857C49.7321 51.506 49.7319 51.5134 49.7313 51.5135C49.7302 51.5135 49.7276 51.4873 49.7219 51.4714C49.7208 51.4682 49.72 51.4664 49.7201 51.4664C49.7202 51.4663 49.7232 51.4721 49.7322 51.4857ZM49.7322 51.4857C49.7322 51.4674 49.7322 51.4387 49.7322 51.3956C49.7322 51.1748 49.8696 51.0296 50.0403 50.9998M50.0403 50.9998C50.1091 50.989 50.179 50.9907 50.2667 51.0152M50.0403 50.9998L50.2667 51.0152" fill="white" stroke="white" stroke-width="1.2"/>
<path d="M44.4061 61.7748C44.0935 61.8514 43.8104 62.0755 43.6452 62.3762C43.5154 62.618 43.5154 62.6593 43.5154 64.7762C43.5154 66.6749 43.5272 66.9756 43.6216 67.3118C43.9696 68.5501 44.9075 69.4817 46.1402 69.8238C46.4764 69.9181 46.7773 69.9358 48.6766 69.9358C50.6702 69.9358 50.8472 69.9299 51.0359 69.8238C51.3131 69.6763 51.4429 69.5584 51.555 69.3461C51.8912 68.6975 51.6435 67.9486 51.0064 67.6597C50.7941 67.5594 50.5758 67.5476 48.8063 67.5476C47.1725 67.5476 46.8068 67.5299 46.6239 67.4592C46.3349 67.3353 46.1461 67.1525 46.0164 66.8695C45.9161 66.6572 45.9043 66.4508 45.9043 64.67C45.9043 62.5118 45.8984 62.4529 45.5386 62.0814C45.2673 61.8042 44.8131 61.6804 44.4061 61.7748Z" fill="white"/>
<path d="M67.6518 61.7926C67.3215 61.881 67.0502 62.1169 66.8968 62.4471C66.7966 62.6594 66.7848 62.8658 66.7848 64.6584C66.7848 66.451 66.773 66.6573 66.6727 66.8696C66.5429 67.1527 66.3542 67.3355 66.0652 67.4593C65.8823 67.5301 65.5166 67.5477 63.8827 67.5477C62.1132 67.5477 61.895 67.5595 61.6826 67.6598C61.0456 67.9487 60.7979 68.6976 61.1341 69.3462C61.2462 69.5585 61.3759 69.6765 61.6531 69.8239C61.8419 69.93 62.0188 69.9359 64.0125 69.9359C65.9118 69.9359 66.2126 69.9182 66.5488 69.8239C67.7816 69.4819 68.7194 68.5502 69.0674 67.3119C69.1618 66.9758 69.1736 66.675 69.1736 64.7763C69.1736 62.6889 69.1677 62.6181 69.0497 62.3881C68.7666 61.8692 68.2299 61.6393 67.6518 61.7926Z" fill="white"/>
<path d="M26.4099 63.6339V69.9359H32.7118H39.0138V63.6339V57.3319H32.7118H26.4099V63.6339ZM35.3002 63.6339V66.2222H32.7118H30.1235V63.6339V61.0456H32.7118H35.3002V63.6339Z" fill="white"/>
<path d="M39.3139 49.1544V55.4564H35.7128H32.1116V53.5996V51.7428H33.8559H35.6002V47.2976V42.8524H37.4571H39.3139V49.1544Z" fill="white"/>
<defs>
<filter id="filter0_d_220_7753" x="0" y="0.00012207" width="97" height="97" filterUnits="userSpaceOnUse" color-interpolation-filters="sRGB">
<feFlood flood-opacity="0" result="BackgroundImageFix"/>
<feColorMatrix in="SourceAlpha" type="matrix" values="0 0 0 0 0 0 0 0 0 0 0 0 0 0 0 0 0 0 127 0" result="hardAlpha"/>
<feOffset/>
<feGaussianBlur stdDeviation="5"/>
<feComposite in2="hardAlpha" operator="out"/>
<feColorMatrix type="matrix" values="0 0 0 0 0 0 0 0 0 0 0 0 0 0 0 0 0 0 0.28 0"/>
<feBlend mode="normal" in2="BackgroundImageFix" result="effect1_dropShadow_220_7753"/>
<feBlend mode="normal" in="SourceGraphic" in2="effect1_dropShadow_220_7753" result="shape"/>
</filter>
<linearGradient id="paint0_linear_220_7753" x1="87" y1="67.7501" x2="10" y2="67.7501" gradientUnits="userSpaceOnUse">
<stop stop-color="#356ABA"/>
<stop offset="1" stop-color="#4181E0"/>
</linearGradient>
</defs>
</svg>
