<svg width="69" height="74" viewBox="0 0 69 74" fill="none" xmlns="http://www.w3.org/2000/svg">
<mask id="mask0_220_7890" style="mask-type:luminance" maskUnits="userSpaceOnUse" x="0" y="7" width="66" height="67">
<path d="M0 7.77271H65.2465V73.0192H0V7.77271Z" fill="white"/>
</mask>
<g mask="url(#mask0_220_7890)">
<path d="M3.38416 33.1263L32.0638 66.7508L19.3173 33.1263H3.38416Z" fill="#82C8DC"/>
<path d="M44.8103 33.1263L32.0637 66.7508L60.7434 33.1263H44.8103Z" fill="#B4E6F0"/>
<path d="M32.0638 33.1263H44.8103L32.0638 18.292L19.3173 33.1263H32.0638Z" fill="#D9FFFF"/>
<path d="M32.0637 33.1262H19.3173L32.0637 66.7506L44.8102 33.1262H32.0637Z" fill="#A0DCE6"/>
<path d="M3.38416 33.1263H19.3172L16.2405 18.292L3.38416 33.1263Z" fill="#A0DCE6"/>
<path d="M60.7434 33.1263L47.8871 18.292L44.8104 33.1263H60.7434Z" fill="#EBFFFF"/>
<path d="M47.8871 18.292H32.0638L44.8103 33.1263L47.8871 18.292Z" fill="#B4E6F0"/>
<path d="M32.0638 18.292H16.2405L19.3173 33.1263L32.0638 18.292Z" fill="#B4E6F0"/>
</g>
<mask id="mask1_220_7890" style="mask-type:luminance" maskUnits="userSpaceOnUse" x="33" y="0" width="36" height="36">
<path d="M37.6917 0L68.8736 3.82865L65.0449 35.0105L33.8631 31.1819L37.6917 0Z" fill="white"/>
</mask>
<g mask="url(#mask1_220_7890)">
<path d="M54.6592 18.6334L53.4776 10.6156L46.2901 14.3748L40.6514 6.48328L39.5081 18.6115C39.4697 18.9982 39.6711 19.3597 40.0133 19.5382L54.1727 26.7467C54.5149 26.9252 54.9315 26.8672 55.2178 26.6111L64.3613 18.5596L54.6592 18.6334Z" fill="#DCA600"/>
<path d="M60.536 18.5814L53.1717 25.559C52.8945 25.8162 52.5125 25.8876 52.2041 25.7314L54.1738 26.7378C54.5159 26.9163 54.9326 26.8582 55.2189 26.6022L64.3623 18.5507L60.536 18.5814Z" fill="#E7C150"/>
<path d="M54.3659 9.01367C53.7412 8.69121 52.982 8.94389 52.6596 9.56872C52.3371 10.1935 52.5897 10.9526 53.2145 11.2751C53.8394 11.5976 54.5985 11.3449 54.921 10.7201C55.2344 10.0942 54.9818 9.33503 54.3659 9.01367Z" fill="#FF8736"/>
<path d="M65.2074 17.0798C64.5815 16.7664 63.8234 17.01 63.501 17.6349C63.1875 18.2608 63.4311 19.0188 64.0559 19.3413C64.6819 19.6547 65.4399 19.4111 65.7624 18.7863C66.0759 18.1604 65.8243 17.3922 65.2074 17.0798Z" fill="#FF8736"/>
<path d="M41.56 5.3844C40.9341 5.07092 40.1761 5.31461 39.8536 5.93944C39.5401 6.56534 39.7838 7.32337 40.4086 7.64582C41.0345 7.95931 41.7925 7.71565 42.115 7.09082C42.4375 6.46602 42.1859 5.69787 41.56 5.3844Z" fill="#FF8736"/>
</g>
</svg>
