<svg width="34" height="35" viewBox="0 0 34 35" fill="none" xmlns="http://www.w3.org/2000/svg">
<path d="M0 5.59651V10.589H4.99248H9.98496V5.59651V0.604025H4.99248H0V5.59651ZM7.04297 5.59651V7.64699H4.99248H2.942V5.59651V3.54602H4.99248H7.04297V5.59651Z" fill="#4181E0"/>
<path d="M12.6595 2.07502V3.54602H15.4678H18.2761V7.06751V10.589H19.7471H21.2181V5.59651V0.604025H16.9388H12.6595V2.07502Z" fill="#4181E0"/>
<path d="M23.8926 5.59651V10.589H28.8851H33.8775V5.59651V0.604025H28.8851H23.8926V5.59651ZM30.9355 5.59651V7.64699H28.8851H26.8346V5.59651V3.54602H28.8851H30.9355V5.59651Z" fill="#4181E0"/>
<path d="M2.25848 15.2844V16.4137H3.95236H5.64624V15.2844V14.1552H3.95236H2.25848V15.2844Z" fill="#4181E0"/>
<path d="M16.0277 14.1842C14.8548 14.3291 13.9437 15.1139 13.6353 16.2443C13.5605 16.5059 13.5511 16.7629 13.5511 18.2484C13.5511 19.8226 13.5558 19.9675 13.6399 20.1169C13.7567 20.3365 13.8502 20.4393 14.0184 20.528C14.5324 20.7943 15.1259 20.5981 15.3548 20.0936C15.4343 19.9254 15.4436 19.7526 15.4436 18.3418C15.4436 16.9217 15.453 16.7582 15.5324 16.59C15.6352 16.3658 15.7847 16.221 16.0137 16.1229C16.1586 16.0668 16.4483 16.0528 17.7426 16.0528C19.1444 16.0528 19.3173 16.0435 19.4856 15.964C19.9902 15.7351 20.1865 15.1419 19.9201 14.628C19.8313 14.4599 19.7285 14.3664 19.5089 14.2496C19.3594 14.1702 19.2145 14.1609 17.8267 14.1562C16.9903 14.1515 16.1819 14.1609 16.0277 14.1842Z" fill="#4181E0"/>
<path d="M28.1537 14.1796C27.7612 14.2637 27.4948 14.5159 27.4107 14.885C27.3126 15.3287 27.5369 15.7819 27.9434 15.964C28.1117 16.0435 28.2845 16.0528 29.6864 16.0528C30.9807 16.0528 31.2704 16.0668 31.4153 16.1229C31.6443 16.221 31.7938 16.3658 31.8966 16.59C31.976 16.7582 31.9854 16.9217 31.9854 18.3418C31.9854 19.7526 31.9947 19.9254 32.0742 20.0936C32.3031 20.5981 32.8966 20.7943 33.4106 20.528C33.5788 20.4393 33.6722 20.3365 33.7891 20.1169C33.8732 19.9675 33.8778 19.8273 33.8778 18.2484C33.8778 16.7442 33.8685 16.5059 33.7937 16.2397C33.518 15.2727 32.7797 14.5253 31.8218 14.2543C31.5882 14.1842 31.2798 14.1702 29.9294 14.1562C29.0415 14.1515 28.2425 14.1609 28.1537 14.1796Z" fill="#4181E0"/>
<path d="M21.3698 27.7575C19.3787 29.7486 19.1654 29.9752 18.9323 29.9977C18.8897 30.0018 18.8464 29.9991 18.7914 29.9991C18.55 29.9991 18.3696 29.9248 18.2184 29.763M21.3698 27.7575L22.3726 24.5025L20.2451 26.6301C18.2493 28.6258 18.0261 28.8395 18.0046 29.0719C18.0007 29.1141 18.0035 29.1569 18.0035 29.2112C18.0035 29.442 18.0618 29.5932 18.2184 29.763M21.3698 27.7575L23.5 25.63M21.3698 27.7575L23.5 25.63M18.2184 29.763L18.6568 29.3533C18.6572 29.3538 18.6576 29.3542 18.658 29.3546M18.2184 29.763L18.6595 29.3563C18.659 29.3557 18.6585 29.3552 18.658 29.3546M18.658 29.3546C18.6806 29.3786 18.6934 29.3844 18.6996 29.3869C18.7077 29.3903 18.7329 29.3991 18.7914 29.3991C18.8048 29.3991 18.8165 29.399 18.8267 29.399M18.658 29.3546C18.6371 29.3319 18.6257 29.3165 18.6196 29.3072C18.6138 29.2984 18.612 29.294 18.6115 29.2926C18.6115 29.2926 18.6115 29.2926 18.6115 29.2926C18.6112 29.2919 18.6035 29.2739 18.6035 29.2112C18.6035 29.1977 18.6035 29.1859 18.6035 29.1757M18.8267 29.399L18.738 19.6037C18.7389 19.6036 18.7398 19.6035 18.7407 19.6033M18.8267 29.399C18.8494 29.3821 18.885 29.3539 18.9367 29.3089C19.1952 29.0841 19.6573 28.6218 20.6293 27.6495C20.7292 27.5496 20.8345 27.4442 20.9456 27.3332L20.9458 27.3329L23.076 25.2054L23.5002 24.7817L23.9242 25.2057L26.0517 27.3332C26.1273 27.4087 26.2001 27.4816 26.2705 27.552C27.3105 28.5922 27.7959 29.0777 28.0631 29.3093C28.1148 29.3541 28.1504 29.3821 28.1731 29.399C28.1833 29.399 28.1951 29.3991 28.2086 29.3991C28.2714 29.3991 28.2893 29.3914 28.29 29.3911L28.29 29.3911C28.2914 29.3905 28.2958 29.3887 28.3046 29.3829C28.3141 29.3767 28.33 29.3649 28.3537 29.343L28.3546 29.3422C28.3764 29.3222 28.383 29.3093 28.3865 29.301C28.3906 29.2911 28.3991 29.2654 28.3991 29.2112C28.3991 29.1988 28.3991 29.1879 28.3991 29.1783C28.382 29.1555 28.3537 29.1196 28.3085 29.0676C28.0765 28.8006 27.5913 28.3161 26.5544 27.2805C26.4826 27.2087 26.4081 27.1344 26.3309 27.0572L26.3304 27.0567L24.2029 24.9265L23.7791 24.5023L24.2031 24.0783L26.3304 21.951C26.3305 21.9509 26.3305 21.9509 26.3306 21.9508C26.4236 21.8577 26.5126 21.7686 26.5977 21.6834C27.6034 20.6768 28.0774 20.2024 28.3059 19.9391C28.3512 19.887 28.3794 19.8511 28.3964 19.8283C28.3964 19.8184 28.3965 19.807 28.3965 19.7939C28.3965 19.7129 28.3694 19.6709 28.3489 19.6503C28.3283 19.6297 28.2873 19.6034 28.2086 19.6034C28.1966 19.6034 28.1861 19.6034 28.1768 19.6034C28.1539 19.6206 28.1178 19.6491 28.0653 19.6948C27.8022 19.9236 27.3287 20.3973 26.3267 21.3995C26.24 21.4863 26.1493 21.577 26.0544 21.6719L26.0541 21.6721L23.924 23.7997L23.5 24.2231L23.076 23.7996L20.9352 21.6616C20.0093 20.737 19.4738 20.2048 19.1568 19.8993C18.997 19.7452 18.902 19.6578 18.8445 19.6088C18.8436 19.608 18.8428 19.6073 18.842 19.6066M18.8267 29.399L18.842 19.6066M18.6035 29.1757C18.5866 29.1985 18.5809 29.2082 18.5806 29.2081C18.5805 29.208 18.5843 29.2007 18.5886 29.1883C18.5986 29.1597 18.602 29.1182 18.6031 29.1182C18.6038 29.1183 18.6036 29.1334 18.6035 29.1757ZM18.6035 29.1757C18.6204 29.153 18.6485 29.1174 18.6933 29.0657C18.9249 28.7985 19.4103 28.3131 20.4505 27.2731C20.5209 27.2027 20.5938 27.1299 20.6693 27.0543L22.7968 24.9268L23.2208 24.5028L22.7971 24.0785L20.6696 21.9484L20.6693 21.9481C20.5745 21.8533 20.4838 21.7626 20.397 21.6758C19.3947 20.6738 18.9211 20.2003 18.6922 19.9372C18.6465 19.8847 18.618 19.8486 18.6009 19.8257M18.6009 19.8257C18.601 19.8684 18.6012 19.8837 18.6006 19.8838C18.5995 19.8838 18.5961 19.8418 18.5855 19.8122C18.582 19.8022 18.5789 19.7958 18.5781 19.7939C18.5779 19.7935 18.5778 19.7933 18.5779 19.7933C18.5779 19.7933 18.578 19.7935 18.5783 19.7939C18.58 19.7963 18.5864 19.8063 18.6009 19.8257ZM18.6009 19.8257C18.6008 19.8164 18.6008 19.8059 18.6008 19.7939C18.6008 19.7322 18.6209 19.6876 18.6445 19.6588C18.6673 19.631 18.6987 19.6109 18.7407 19.6033M18.7407 19.6033C18.7707 19.5987 18.8017 19.5981 18.842 19.6066M18.7407 19.6033L18.842 19.6066M23.5 25.63L23.5001 25.6301L23.5 25.63ZM18.8023 19.5751C18.8024 19.5752 18.8039 19.5763 18.8068 19.5782C18.8037 19.5759 18.8023 19.575 18.8023 19.5751Z" fill="#5D85EB" stroke="#5D85EB" stroke-width="1.2"/>
<path d="M14.2569 28.0163C14.0092 28.0771 13.7849 28.2546 13.6541 28.4928C13.5513 28.6843 13.5513 28.717 13.5513 30.3941C13.5513 31.8983 13.5606 32.1365 13.6354 32.4028C13.9111 33.3838 14.654 34.1219 15.6307 34.3928C15.897 34.4676 16.1353 34.4816 17.6399 34.4816C19.2193 34.4816 19.3595 34.4769 19.509 34.3928C19.7287 34.276 19.8315 34.1826 19.9203 34.0144C20.1866 33.5006 19.9903 32.9073 19.4857 32.6784C19.3175 32.599 19.1446 32.5896 17.7427 32.5896C16.4484 32.5896 16.1587 32.5756 16.0138 32.5196C15.7849 32.4215 15.6353 32.2767 15.5325 32.0524C15.4531 31.8843 15.4437 31.7208 15.4437 30.31C15.4437 28.6003 15.4391 28.5535 15.154 28.2592C14.9391 28.0397 14.5793 27.9416 14.2569 28.0163Z" fill="#4181E0"/>
<path d="M32.6723 28.0305C32.4106 28.1005 32.1957 28.2874 32.0742 28.549C31.9947 28.7172 31.9854 28.8807 31.9854 30.3008C31.9854 31.7209 31.976 31.8844 31.8966 32.0526C31.7938 32.2768 31.6443 32.4216 31.4153 32.5197C31.2705 32.5758 30.9807 32.5898 29.6864 32.5898C28.2846 32.5898 28.1117 32.5991 27.9434 32.6785C27.4388 32.9074 27.2425 33.5007 27.5089 34.0145C27.5977 34.1827 27.7005 34.2761 27.9201 34.3929C28.0696 34.477 28.2098 34.4817 29.7892 34.4817C31.2938 34.4817 31.5321 34.4677 31.7985 34.3929C32.7751 34.122 33.5181 33.3839 33.7938 32.4029C33.8685 32.1366 33.8779 31.8984 33.8779 30.3942C33.8779 28.7405 33.8732 28.6845 33.7797 28.5023C33.5554 28.0912 33.1302 27.909 32.6723 28.0305Z" fill="#4181E0"/>
<path d="M0 29.4892V34.4817H4.99248H9.98496V29.4892V24.4967H4.99248H0V29.4892ZM7.04297 29.4892V31.5397H4.99248H2.942V29.4892V27.4387H4.99248H7.04297V29.4892Z" fill="#4181E0"/>
<path d="M10.2227 18.0185V23.011H7.36981H4.51696V21.54V20.069H5.89881H7.28066V16.5475V13.026H8.75166H10.2227V18.0185Z" fill="#4181E0"/>
</svg>
