<svg width="27" height="27" viewBox="0 0 27 27" fill="none" xmlns="http://www.w3.org/2000/svg">
<path d="M0.236572 3.94399V7.88806H4.18065H8.12472V3.94399V-8.44002e-05H4.18065H0.236572V3.94399ZM5.80053 3.94399V5.56388H4.18065H2.56076V3.94399V2.3241H4.18065H5.80053V3.94399Z" fill="#37498A"/>
<path d="M10.2376 1.16201V2.3241H12.4562H14.6747V5.10608V7.88806H15.8368H16.9989V3.94399V-8.44002e-05H13.6182H10.2376V1.16201Z" fill="#37498A"/>
<path d="M19.1118 3.94399V7.88806H23.0559H27V3.94399V-8.44002e-05H23.0559H19.1118V3.94399ZM24.6758 3.94399V5.56388H23.0559H21.436V3.94399V2.3241H23.0559H24.6758V3.94399Z" fill="#37498A"/>
<path d="M2.02081 11.5976V12.4897H3.35898H4.69715V11.5976V10.7055H3.35898H2.02081V11.5976Z" fill="#37498A"/>
<path d="M18.2188 13H19.7812C20.041 13 20.25 13.209 20.25 13.4688V16.75H21.9629C22.3105 16.75 22.4844 17.1699 22.2383 17.416L19.2676 20.3887C19.1211 20.5352 18.8809 20.5352 18.7344 20.3887L15.7598 17.416C15.5137 17.1699 15.6875 16.75 16.0352 16.75H17.75V13.4688C17.75 13.209 17.959 13 18.2188 13ZM24 20.3438V22.5312C24 22.791 23.791 23 23.5312 23H14.4688C14.209 23 14 22.791 14 22.5312V20.3438C14 20.084 14.209 19.875 14.4688 19.875H17.334L18.291 20.832C18.6836 21.2246 19.3164 21.2246 19.709 20.832L20.666 19.875H23.5312C23.791 19.875 24 20.084 24 20.3438ZM21.5781 22.0625C21.5781 21.8477 21.4023 21.6719 21.1875 21.6719C20.9727 21.6719 20.7969 21.8477 20.7969 22.0625C20.7969 22.2773 20.9727 22.4531 21.1875 22.4531C21.4023 22.4531 21.5781 22.2773 21.5781 22.0625ZM22.8281 22.0625C22.8281 21.8477 22.6523 21.6719 22.4375 21.6719C22.2227 21.6719 22.0469 21.8477 22.0469 22.0625C22.0469 22.2773 22.2227 22.4531 22.4375 22.4531C22.6523 22.4531 22.8281 22.2773 22.8281 22.0625Z" fill="#37498A"/>
<path d="M12.9086 10.0225C12.0047 10.134 11.3025 10.7385 11.0648 11.6091C11.0072 11.8106 11 12.0085 11 13.1526C11 14.3651 11.0036 14.4766 11.0684 14.5918C11.1584 14.7609 11.2305 14.84 11.3601 14.9084C11.7562 15.1135 12.2136 14.9624 12.39 14.5738C12.4512 14.4443 12.4584 14.3111 12.4584 13.2246C12.4584 12.1308 12.4656 12.0049 12.5269 11.8754C12.6061 11.7027 12.7213 11.5912 12.8978 11.5156C13.0094 11.4724 13.2327 11.4616 14.2302 11.4616C15.3105 11.4616 15.4438 11.4544 15.5734 11.3933C15.9623 11.217 16.1136 10.76 15.9083 10.3643C15.8399 10.2348 15.7607 10.1628 15.5914 10.0729C15.4762 10.0117 15.3645 10.0045 14.295 10.0009C13.6504 9.9973 13.0274 10.0045 12.9086 10.0225Z" fill="#37498A"/>
<path d="M21.7081 10.0189C21.3452 10.0837 21.0989 10.278 21.0212 10.5622C20.9305 10.904 21.1378 11.253 21.5137 11.3933C21.6692 11.4544 21.829 11.4616 23.125 11.4616C24.3216 11.4616 24.5895 11.4724 24.7234 11.5156C24.9351 11.5912 25.0733 11.7027 25.1683 11.8754C25.2418 12.0049 25.2504 12.1308 25.2504 13.2246C25.2504 14.3111 25.2591 14.4443 25.3325 14.5738C25.5442 14.9624 26.0928 15.1135 26.568 14.9084C26.7235 14.84 26.8099 14.7609 26.9179 14.5918C26.9957 14.4766 27 14.3687 27 13.1526C27 11.9941 26.9914 11.8106 26.9222 11.6056C26.6674 10.8608 25.9848 10.2851 25.0992 10.0765C24.8832 10.0225 24.5981 10.0117 23.3496 10.0009C22.5289 9.99732 21.7901 10.0045 21.7081 10.0189Z" fill="#37498A"/>
<path d="M11.5438 21.0191C11.3529 21.0659 11.1801 21.2026 11.0792 21.3862C11 21.5337 11 21.5589 11 22.8509C11 24.0098 11.0072 24.1933 11.0648 24.3985C11.2773 25.1543 11.8499 25.7229 12.6025 25.9316C12.8078 25.9892 12.9914 26 14.151 26C15.3681 26 15.4762 25.9964 15.5914 25.9316C15.7607 25.8416 15.8399 25.7697 15.9083 25.6401C16.1136 25.2442 15.9623 24.7872 15.5734 24.6108C15.4438 24.5496 15.3105 24.5424 14.2302 24.5424C13.2327 24.5424 13.0094 24.5316 12.8978 24.4885C12.7213 24.4129 12.6061 24.3013 12.5269 24.1286C12.4656 23.999 12.4584 23.873 12.4584 22.7862C12.4584 21.469 12.4548 21.433 12.2352 21.2062C12.0695 21.0371 11.7922 20.9615 11.5438 21.0191Z" fill="#37498A"/>
<path d="M25.8851 21.0286C25.6431 21.0826 25.4443 21.2266 25.332 21.4281C25.2585 21.5577 25.2499 21.6837 25.2499 22.7781C25.2499 23.8725 25.2412 23.9985 25.1678 24.1281C25.0727 24.3009 24.9344 24.4125 24.7227 24.488C24.5887 24.5312 24.3208 24.542 23.1238 24.542C21.8274 24.542 21.6675 24.5492 21.5119 24.6104C21.0452 24.7868 20.8637 25.244 21.11 25.64C21.1921 25.7696 21.2872 25.8416 21.4903 25.9316C21.6286 25.9964 21.7582 26 23.2188 26C24.6103 26 24.8307 25.9892 25.077 25.9316C25.9802 25.7228 26.6673 25.154 26.9222 24.3981C26.9914 24.1929 27 24.0093 27 22.8501C27 21.5757 26.9957 21.5325 26.9093 21.3921C26.7018 21.0754 26.3086 20.935 25.8851 21.0286Z" fill="#37498A"/>
<path d="M0.236572 22.8194V26.7634H4.18065H8.12472V22.8194V18.8753H4.18065H0.236572V22.8194ZM5.80053 22.8194V24.4392H4.18065H2.56076V22.8194V21.1995H4.18065H5.80053V22.8194Z" fill="#37498A"/>
<path d="M8.31256 13.7575V17.7015H6.05881H3.80505V16.5394V15.3774H4.89671H5.98838V12.5954V9.81339H7.15047H8.31256V13.7575Z" fill="#37498A"/>
</svg>
