<svg width="13" height="12" viewBox="0 0 13 12" fill="none" xmlns="http://www.w3.org/2000/svg">
<path d="M9.08649 1.94804L11.1223 4.06251C11.208 4.15159 11.208 4.29693 11.1223 4.38601L6.19309 9.50576L4.09864 9.74722C3.81878 9.78004 3.5818 9.53389 3.6134 9.24321L3.84586 7.06779L8.77503 1.94804C8.86079 1.85896 9.00072 1.85896 9.08649 1.94804ZM12.7427 1.41121L11.6413 0.26724C11.2983 -0.0890799 10.7408 -0.0890799 10.3955 0.26724L9.59656 1.09709C9.51079 1.18617 9.51079 1.33151 9.59656 1.42059L11.6323 3.53507C11.7181 3.62415 11.858 3.62415 11.9438 3.53507L12.7427 2.70522C13.0858 2.34655 13.0858 1.76753 12.7427 1.41121ZM8.6667 8.1133V10.4997H1.44447V2.99824H6.63093C6.70316 2.99824 6.77086 2.96777 6.82277 2.91619L7.72555 1.97851C7.89708 1.80035 7.7752 1.49795 7.53371 1.49795H1.08336C0.485274 1.49795 3.05176e-05 2.00195 3.05176e-05 2.62317V10.8748C3.05176e-05 11.496 0.485274 12 1.08336 12H9.02781C9.6259 12 10.1111 11.496 10.1111 10.8748V7.17562C10.1111 6.92479 9.82 6.80055 9.64847 6.97636L8.74569 7.91405C8.69604 7.96796 8.6667 8.03829 8.6667 8.1133Z" fill="#766B6B"/>
</svg>
