<svg width="26" height="29" viewBox="0 0 26 29" fill="none" xmlns="http://www.w3.org/2000/svg">
<path d="M3.61682 9.61673V18.9999H13H22.3831V9.61673V0.233591H13H3.61682V9.61673ZM13.5213 1.94639V2.46767H13H12.4787V1.94639V1.4251H13H13.5213V1.94639ZM20.5214 1.57404C20.6629 1.71553 20.6703 1.81979 20.6703 4.09855C20.6703 6.32519 20.6629 6.48157 20.5288 6.64541L20.3873 6.82413L17.8107 6.84647L15.234 6.86881V6.34008V5.8188H17.4309H19.6277V4.14323V2.46767H17.9522H16.2766V3.54748V4.62729H15.7553H15.234V3.21981C15.234 1.9166 15.2415 1.8049 15.3904 1.61872L15.5394 1.4251H17.9596C20.2756 1.4251 20.3799 1.43255 20.5214 1.57404ZM8.01052 2.98896V3.51024H6.89347H5.77643V4.62729V5.74433H5.29238H4.80833V4.26983C4.80833 2.95173 4.82323 2.773 4.94238 2.67619C5.136 2.49746 5.25515 2.48257 6.69241 2.47512L8.01052 2.46767V2.98896ZM10.2446 2.98896V3.51024H9.72331H9.20203V2.98896V2.46767H9.72331H10.2446V2.98896ZM12.4042 2.98896V3.51024H11.8829H11.3616V2.98896V2.46767H11.8829H12.4042V2.98896ZM18.5107 4.106V4.62729H17.9894H17.4681V4.106V3.58471H17.9894H18.5107V4.106ZM8.01052 5.22304V5.74433H7.48923H6.96794V5.22304V4.70175H7.48923H8.01052V5.22304ZM13.5213 5.22304V5.74433H12.4042H11.2872V6.86137V7.97841H10.7659H10.2446V6.64541C10.2446 5.90071 10.2818 5.21559 10.3191 5.10389C10.468 4.7241 10.5425 4.7092 12.0914 4.70175H13.5213V5.22304ZM9.12756 6.34008V6.86137H8.60627H8.08498V6.34008V5.8188H8.60627H9.12756V6.34008ZM7.85413 7.12946C8.00307 7.31563 8.01052 7.42733 8.01052 8.73055V10.138H7.48923H6.96794V9.05821V7.97841H5.88814H4.80833V7.45712V6.93584H6.25304H7.70519L7.85413 7.12946ZM13.5213 7.45712V7.97841H13H12.4787V7.45712V6.93584H13H13.5213V7.45712ZM17.9149 8.49969V9.02098H16.3139H14.7128V8.49969V7.97841H16.3139H17.9149V8.49969ZM20.149 8.49969V9.02098H19.6277H19.1065V8.49969V7.97841H19.6277H20.149V8.49969ZM5.77643 9.61673V10.138H5.29238H4.80833V9.61673V9.09545H5.29238H5.77643V9.61673ZM10.7659 9.61673V10.138H9.98395H9.20203V9.61673V9.09545H9.98395H10.7659V9.61673ZM14.6383 9.65397V10.2125H15.1968H15.7553V10.7338V11.2551H14.6383H13.5213V12.3721V13.4891H13H12.4787V12.037C12.4787 10.5848 12.4787 10.5774 12.6649 10.3987C12.8063 10.2497 12.918 10.2125 13.2234 10.2125H13.5957V9.65397V9.09545H14.117H14.6383V9.65397ZM21.1916 9.61673V10.138H20.7075H20.2235V9.61673V9.09545H20.7075H21.1916V9.61673ZM6.89347 10.7338V11.2551H6.37219H5.8509V10.7338V10.2125H6.37219H6.89347V10.7338ZM9.12756 10.7338V11.2551H8.60627H8.08498V10.7338V10.2125H8.60627H9.12756V10.7338ZM17.9149 10.7338V11.2551H17.3937H16.8724V10.7338V10.2125H17.3937H17.9149V10.7338ZM20.149 10.7338V11.2551H19.6277H19.1065V10.7338V10.2125H19.6277H20.149V10.7338ZM11.2872 11.8508V12.3721H10.7659H10.2446V11.8508V11.3295H10.7659H11.2872V11.8508ZM10.0286 12.5881C10.1999 12.7221 10.2074 12.7891 10.2372 13.6679L10.2595 14.6062H10.7733H11.2872V15.1275V15.6488H10.7733H10.2595L10.2372 16.5871C10.2074 17.503 10.1999 17.5254 9.99885 17.7041L9.79033 17.8828H7.49668C5.28494 17.8828 5.19557 17.8754 5.00195 17.7265L4.80833 17.5775V15.1275C4.80833 12.6849 4.80833 12.6774 4.97216 12.5657C5.11366 12.4615 5.486 12.4466 7.49668 12.4466C9.70842 12.4466 9.8648 12.454 10.0286 12.5881ZM15.7553 12.9679V13.4891H16.2766H16.7979V14.0104V14.5317H16.2766H15.7553V14.0104V13.4891H15.234H14.7128V12.9679V12.4466H15.234H15.7553V12.9679ZM21.1916 12.9679V13.4891H20.1118H19.032V14.5689V15.6488H18.5107H17.9894V14.2413C17.9894 12.9381 17.9969 12.8264 18.1458 12.6402L18.2947 12.4466H19.7469H21.1916V12.9679ZM15.5096 14.7849L15.7181 14.9636L15.7404 16.4232L15.7702 17.8828H15.2415H14.7128V16.7658V15.6488H13.5957H12.4787V15.1275V14.6062H13.8862C15.2713 14.6062 15.3011 14.6062 15.5096 14.7849ZM21.2661 15.1275V15.6488H20.7448H20.2235V15.1275V14.6062H20.7448H21.2661V15.1275ZM17.9149 16.2445V16.7658H17.3937H16.8724V16.2445V15.7232H17.3937H17.9149V16.2445ZM20.149 16.2445V16.7658H19.6277H19.1065V16.2445V15.7232H19.6277H20.149V16.2445ZM13.5213 17.3616V17.8828H13H12.4787V17.3616V16.8403H13H13.5213V17.3616Z" fill="#4B85DB"/>
<path d="M5.77643 15.1648V16.8403H7.48922H9.20202V15.1648V13.4892H7.48922H5.77643V15.1648ZM8.01051 15.1275V15.6488H7.48922H6.96794V15.1275V14.6063H7.48922H8.01051V15.1275Z" fill="#4B85DB"/>
<path d="M0.872792 5.66105C0.739726 5.70944 0.52803 5.84855 0.407061 5.96952C-0.0344764 6.40501 -0.0102826 5.78807 0.00786276 14.643L0.0260081 22.6028L0.207462 22.8931C0.340528 23.1109 0.479643 23.2379 0.715533 23.3588L1.0361 23.5282H13H24.9638L25.2844 23.3588C25.5203 23.2379 25.6594 23.1109 25.7924 22.8931L25.9739 22.6028L25.992 14.643C26.0102 5.78807 26.0344 6.40501 25.5928 5.96952C25.2057 5.58847 25.0485 5.56427 23.1553 5.56427H21.4678V6.04815V6.53203H23.119C24.6977 6.53203 24.7763 6.53807 24.9033 6.653L25.0364 6.78001V14.5462C25.0364 22.2399 25.0364 22.3185 24.9154 22.4395C24.7944 22.5604 24.7158 22.5604 13 22.5604C1.28409 22.5604 1.20546 22.5604 1.08449 22.4395C0.963519 22.3185 0.963519 22.2399 0.963519 14.5462C0.963519 6.85259 0.963519 6.77397 1.08449 6.653C1.19941 6.53807 1.28409 6.53203 2.86878 6.53203H4.53211V6.04815V5.56427L2.82644 5.57032C1.48369 5.57032 1.06029 5.59451 0.872792 5.66105Z" fill="#4B85DB"/>
<path d="M11.1975 25.2823L10.8951 26.1896H12.9999H15.1048L14.8024 25.2823L14.5 24.375H12.9999H11.4999L11.1975 25.2823Z" fill="#4B85DB"/>
<path d="M6.05029 27.121C5.86279 27.2238 5.8144 27.3508 5.80836 27.7137L5.80231 28.004H13H20.1976V27.7439C20.1976 27.3629 20.1372 27.2238 19.9497 27.127C19.7017 27 6.28014 26.9939 6.05029 27.121Z" fill="#4B85DB"/>
</svg>
