<svg width="23" height="23" viewBox="0 0 20 20" fill="none" xmlns="http://www.w3.org/2000/svg">
<path d="M0.890503 3.23649V5.98364H3.63765H6.3848V3.23649V0.489345H3.63765H0.890503V3.23649ZM4.76595 3.23649V4.36479H3.63765H2.50936V3.23649V2.1082H3.63765H4.76595V3.23649Z" fill="#3F7DD9"/>
<path d="M7.85645 1.29877V2.1082H9.40172H10.947V4.04592V5.98364H11.7564H12.5658V3.23649V0.489345H10.2111H7.85645V1.29877Z" fill="#3F7DD9"/>
<path d="M14.0375 3.23649V5.98364H16.7847H19.5318V3.23649V0.489345H16.7847H14.0375V3.23649ZM17.913 3.23649V4.36479H16.7847H15.6564V3.23649V2.1082H16.7847H17.913V3.23649Z" fill="#3F7DD9"/>
<path d="M2.13318 8.56746V9.18884H3.06525H3.99732V8.56746V7.94608H3.06525H2.13318V8.56746Z" fill="#3F7DD9"/>
<path d="M16.177 9.84732L17.9222 11.6883C17.9957 11.7659 17.9957 11.8924 17.9222 11.97L13.6966 16.4275L11.9011 16.6377C11.6612 16.6663 11.458 16.452 11.4851 16.1989L11.6844 14.3049L15.91 9.84732C15.9835 9.76976 16.1035 9.76976 16.177 9.84732ZM19.3114 9.37993L18.3672 8.38392C18.0731 8.07369 17.5952 8.07369 17.2992 8.38392L16.6143 9.10643C16.5407 9.18399 16.5407 9.31053 16.6143 9.38809L18.3594 11.2291C18.433 11.3066 18.5529 11.3066 18.6264 11.2291L19.3114 10.5066C19.6054 10.1943 19.6054 9.69016 19.3114 9.37993ZM15.8171 15.2152V17.2929H9.62578V10.7617H14.0719C14.1339 10.7617 14.1919 10.7352 14.2364 10.6903L15.0103 9.87385C15.1574 9.71873 15.0529 9.45545 14.8459 9.45545H9.31621C8.80349 9.45545 8.38751 9.89426 8.38751 10.4351V17.6195C8.38751 18.1603 8.80349 18.5991 9.31621 18.5991H16.1267C16.6394 18.5991 17.0554 18.1603 17.0554 17.6195V14.3988C17.0554 14.1804 16.8058 14.0722 16.6588 14.2253L15.8848 15.0417C15.8423 15.0886 15.8171 15.1498 15.8171 15.2152Z" fill="#3F7DD9"/>
<path d="M0.890564 16.3837V19.1309H3.63771H6.38486V16.3837V13.6366H3.63771H0.890564V16.3837ZM4.76601 16.3837V17.512H3.63771H2.50942V16.3837V15.2554H3.63771H4.76601V16.3837Z" fill="#3F7DD9"/>
<path d="M6.51556 10.0718V12.819H4.94576H3.37597V12.0095V11.2001H4.13634H4.89671V9.26239V7.32467H5.70614H6.51556V10.0718Z" fill="#3F7DD9"/>
</svg>
