<svg width="20" height="14" viewBox="0 0 20 14" fill="none" xmlns="http://www.w3.org/2000/svg">
<path d="M19.317 8.00021L19.317 8.00022L16.8023 12.5267L16.8023 12.5267C16.6603 12.7823 16.4592 12.9904 16.2221 13.1334C15.9853 13.2762 15.7196 13.35 15.4511 13.35H1.5634C1.50791 13.35 1.45145 13.3227 1.41103 13.2489C1.36989 13.1737 1.36604 13.0821 1.41177 12.9998C1.41178 12.9998 1.41178 12.9998 1.41178 12.9998L3.9265 8.47329C4.06848 8.21772 4.26958 8.0096 4.50669 7.86661C4.74352 7.72378 5.00929 7.65 5.27781 7.65H19.1655C19.2209 7.65 19.2774 7.67725 19.3178 7.75113C19.3589 7.82633 19.3628 7.91787 19.317 8.00021ZM0.65003 9.37866V1.75C0.65003 1.11223 1.13472 0.65 1.6667 0.65H6.94368L8.97379 2.78161L9.16591 2.98333H9.44448H15C15.532 2.98333 16.0167 3.44556 16.0167 4.08333V5.18333H5.27781C3.85002 5.18333 2.53467 5.98628 1.83034 7.2541L0.65003 9.37866Z" fill="#0C6F8E" stroke="#0C6F8E" stroke-width="1.3"/>
</svg>
