<svg width="34" height="35" viewBox="0 0 34 35" xmlns="http://www.w3.org/2000/svg">
<path d="M0 5.39241V10.3849H4.99248H9.98496V5.39241V0.399923H4.99248H0V5.39241ZM7.04297 5.39241V7.44289H4.99248H2.942V5.39241V3.34192H4.99248H7.04297V5.39241Z" />
<path d="M12.6595 1.87092V3.34192H15.4678H18.2761V6.8634V10.3849H19.7471H21.2181V5.39241V0.399923H16.9388H12.6595V1.87092Z" />
<path d="M23.8926 5.39241V10.3849H28.8851H33.8775V5.39241V0.399923H28.8851H23.8926V5.39241ZM30.9355 5.39241V7.44289H28.8851H26.8346V5.39241V3.34192H28.8851H30.9355V5.39241Z" />
<path d="M2.25848 15.0803V16.2096H3.95236H5.64624V15.0803V13.9511H3.95236H2.25848V15.0803Z" />
<path d="M16.0278 13.9801C14.8549 14.125 13.9437 14.9097 13.6353 16.0402C13.5606 16.3018 13.5512 16.5588 13.5512 18.0443C13.5512 19.6185 13.5559 19.7633 13.64 19.9128C13.7568 20.1324 13.8503 20.2352 14.0185 20.3239C14.5325 20.5902 15.1259 20.394 15.3549 19.8895C15.4343 19.7213 15.4437 19.5485 15.4437 18.1377C15.4437 16.7176 15.453 16.5541 15.5325 16.3859C15.6353 16.1617 15.7848 16.0169 16.0138 15.9188C16.1586 15.8627 16.4483 15.8487 17.7427 15.8487C19.1445 15.8487 19.3174 15.8394 19.4856 15.7599C19.9903 15.531 20.1865 14.9378 19.9202 14.4239C19.8314 14.2558 19.7286 14.1623 19.509 14.0455C19.3595 13.9661 19.2146 13.9568 17.8268 13.9521C16.9904 13.9474 16.182 13.9568 16.0278 13.9801Z" />
<path d="M28.1537 13.9755C27.7612 14.0596 27.4948 14.3118 27.4107 14.6808C27.3126 15.1246 27.5369 15.5778 27.9434 15.7599C28.1117 15.8394 28.2845 15.8487 29.6864 15.8487C30.9807 15.8487 31.2704 15.8627 31.4153 15.9188C31.6443 16.0169 31.7938 16.1617 31.8966 16.3859C31.976 16.5541 31.9854 16.7176 31.9854 18.1377C31.9854 19.5485 31.9947 19.7213 32.0742 19.8895C32.3031 20.394 32.8966 20.5902 33.4106 20.3239C33.5788 20.2352 33.6722 20.1324 33.7891 19.9128C33.8732 19.7633 33.8778 19.6232 33.8778 18.0443C33.8778 16.5401 33.8685 16.3018 33.7937 16.0356C33.518 15.0686 32.7797 14.3212 31.8218 14.0502C31.5882 13.9801 31.2798 13.9661 29.9294 13.9521C29.0415 13.9474 28.2425 13.9568 28.1537 13.9755Z" />
<path d="M23.4202 18.6049C23.2052 18.6703 22.9622 18.8852 22.8688 19.0908C22.7893 19.2683 22.78 19.4271 22.78 21.2303V23.1829H20.8314C19.0371 23.1829 18.8642 23.1923 18.6913 23.2717C17.9997 23.5847 17.9857 24.603 18.668 24.944C18.8736 25.0515 18.8969 25.0515 20.8268 25.0515H22.78V27.0041C22.78 28.9334 22.78 28.9568 22.8875 29.1623C23.2286 29.8444 24.2472 29.8303 24.5603 29.139C24.6398 28.9661 24.6491 28.7933 24.6491 26.9995V25.0515H26.6023C28.5322 25.0515 28.5555 25.0515 28.7611 24.944C28.8826 24.8833 29.0275 24.7572 29.1116 24.6404C29.2331 24.4629 29.2518 24.3975 29.2518 24.1172C29.2518 23.8369 29.2331 23.7715 29.1116 23.594C29.0275 23.4772 28.8826 23.3511 28.7611 23.2857C28.5555 23.1829 28.5322 23.1829 26.6023 23.1829H24.6491V21.2303C24.6491 19.4411 24.6398 19.2683 24.5603 19.0954C24.3734 18.675 23.8828 18.4648 23.4202 18.6049Z" />
<path d="M14.2569 27.8122C14.0092 27.873 13.7849 28.0505 13.6541 28.2887C13.5513 28.4802 13.5513 28.5129 13.5513 30.19C13.5513 31.6942 13.5606 31.9324 13.6354 32.1987C13.9111 33.1797 14.654 33.9178 15.6307 34.1887C15.897 34.2635 16.1353 34.2775 17.6399 34.2775C19.2193 34.2775 19.3595 34.2728 19.509 34.1887C19.7287 34.0719 19.8315 33.9785 19.9203 33.8103C20.1866 33.2965 19.9903 32.7032 19.4857 32.4743C19.3175 32.3949 19.1446 32.3855 17.7427 32.3855C16.4484 32.3855 16.1587 32.3715 16.0138 32.3155C15.7849 32.2174 15.6353 32.0726 15.5325 31.8483C15.4531 31.6802 15.4437 31.5167 15.4437 30.1059C15.4437 28.3962 15.4391 28.3494 15.154 28.0551C14.9391 27.8356 14.5793 27.7375 14.2569 27.8122Z" />
<path d="M32.6723 27.8264C32.4106 27.8964 32.1957 28.0833 32.0742 28.3449C31.9947 28.5131 31.9854 28.6766 31.9854 30.0967C31.9854 31.5168 31.976 31.6803 31.8966 31.8485C31.7938 32.0727 31.6443 32.2175 31.4153 32.3156C31.2705 32.3717 30.9807 32.3857 29.6864 32.3857C28.2846 32.3857 28.1117 32.395 27.9434 32.4744C27.4388 32.7033 27.2425 33.2966 27.5089 33.8104C27.5977 33.9786 27.7005 34.072 27.9201 34.1888C28.0696 34.2729 28.2098 34.2776 29.7892 34.2776C31.2938 34.2776 31.5321 34.2636 31.7985 34.1888C32.7751 33.9179 33.5181 33.1798 33.7938 32.1988C33.8685 31.9325 33.8779 31.6943 33.8779 30.1901C33.8779 28.5364 33.8732 28.4804 33.7797 28.2982C33.5554 27.8871 33.1302 27.7049 32.6723 27.8264Z" />
<path d="M0 29.2851V34.2776H4.99248H9.98496V29.2851V24.2926H4.99248H0V29.2851ZM7.04297 29.2851V31.3356H4.99248H2.942V29.2851V27.2346H4.99248H7.04297V29.2851Z" />
<path d="M10.2227 17.8144V22.8069H7.36981H4.51696V21.3359V19.8649H5.89881H7.28066V16.3434V12.8219H8.75166H10.2227V17.8144Z" />
</svg>
