<svg width="36" height="37" viewBox="0 0 36 37" fill="none" xmlns="http://www.w3.org/2000/svg">
<path d="M29.4398 16.2231H28.5V16.1746H18V20.8413H24.5934C23.6315 23.5579 21.0468 25.508 18 25.508C14.1343 25.508 11 22.3737 11 18.508C11 14.6422 14.1343 11.508 18 11.508C19.7844 11.508 21.4078 12.1811 22.6439 13.2807L25.9438 9.98081C23.8602 8.03889 21.073 6.84131 18 6.84131C11.5571 6.84131 6.33334 12.0651 6.33334 18.508C6.33334 24.9509 11.5571 30.1746 18 30.1746C24.4429 30.1746 29.6667 24.9509 29.6667 18.508C29.6667 17.7257 29.5862 16.9621 29.4398 16.2231Z" fill="#FFC107"/>
<path d="M7.67847 13.0777L11.5115 15.8888C12.5487 13.321 15.0605 11.508 18 11.508C19.7844 11.508 21.4078 12.1811 22.6439 13.2807L25.9438 9.98081C23.8601 8.03889 21.073 6.84131 18 6.84131C13.5188 6.84131 9.63263 9.37122 7.67847 13.0777Z" fill="#FF3D00"/>
<path d="M18 30.1747C21.0135 30.1747 23.7517 29.0214 25.822 27.146L22.2111 24.0905C21.0004 25.0112 19.5211 25.5092 18 25.508C14.9655 25.508 12.389 23.5731 11.4183 20.8728L7.6138 23.8041C9.54463 27.5823 13.4658 30.1747 18 30.1747Z" fill="#4CAF50"/>
<path d="M29.4397 16.2231H28.5V16.1746H18V20.8413H24.5934C24.1333 22.1342 23.3045 23.264 22.2093 24.0911L22.2111 24.0899L25.8219 27.1454C25.5664 27.3776 29.6667 24.3413 29.6667 18.508C29.6667 17.7257 29.5862 16.9621 29.4397 16.2231Z" fill="#1976D2"/>
<rect x="0.418378" y="0.926404" width="35.1632" height="35.1632" rx="2.09189" stroke="#4181E0" stroke-width="0.836755"/>
</svg>
