<svg width="33" height="33" viewBox="0 0 33 33" fill="none" xmlns="http://www.w3.org/2000/svg">
<path d="M3.9684 0.0468454C2.08902 0.278893 0.628953 1.53644 0.134776 3.3479C0.0149751 3.76708 0 4.17877 0 6.55912C0 9.08169 0.00748754 9.31374 0.142263 9.55327C0.329452 9.90508 0.479202 10.0698 0.748754 10.212C1.57238 10.6386 2.5233 10.3243 2.89019 9.51584C3.01748 9.24637 3.03245 8.96941 3.03245 6.70883C3.03245 4.43327 3.04743 4.17129 3.17472 3.90181C3.33944 3.54251 3.57904 3.31047 3.94593 3.15328C4.17805 3.06345 4.64227 3.041 6.71632 3.041C8.96258 3.041 9.23962 3.02602 9.50917 2.89877C10.3178 2.53199 10.6323 1.58135 10.2055 0.757957C10.0633 0.488482 9.89853 0.338776 9.54661 0.151641C9.30701 0.0243893 9.0749 0.00941849 6.8511 0.0019331C5.51083 -0.00555134 4.21548 0.00941849 3.9684 0.0468454Z" fill="#4181E0"/>
<path d="M23.3987 0.03936C22.7697 0.174096 22.3429 0.578306 22.2081 1.16965C22.0509 1.88076 22.4103 2.60684 23.0617 2.89877C23.3313 3.02602 23.6083 3.04099 25.8546 3.04099C27.9286 3.04099 28.3928 3.06345 28.625 3.15328C28.9919 3.31047 29.2315 3.54251 29.3962 3.90181C29.5235 4.17129 29.5384 4.43327 29.5384 6.70883C29.5384 8.96941 29.5534 9.24637 29.6807 9.51584C30.0476 10.3243 30.9985 10.6386 31.8221 10.212C32.0917 10.0698 32.2414 9.90508 32.4286 9.55327C32.5634 9.31374 32.5709 9.08918 32.5709 6.55912C32.5709 4.14883 32.5559 3.76708 32.4361 3.34041C31.9944 1.79094 30.8113 0.593277 29.2764 0.159125C28.902 0.0468454 28.4078 0.0243893 26.2439 0.0019331C24.8213 -0.00555229 23.5409 0.00941849 23.3987 0.03936Z" fill="#4181E0"/>
<path d="M1.13071 22.211C0.73387 22.3084 0.374468 22.5928 0.164817 22.9746C9.15527e-05 23.2815 9.15527e-05 23.3338 9.15527e-05 26.0211C9.15527e-05 28.4314 0.0150666 28.8131 0.134867 29.2398C0.576632 30.8117 1.76715 31.9944 3.33205 32.4286C3.75884 32.5483 4.1407 32.5708 6.55169 32.5708C9.08248 32.5708 9.3071 32.5633 9.5467 32.4286C9.89862 32.2414 10.0633 32.0917 10.2056 31.8223C10.6324 30.9989 10.3179 30.0482 9.50927 29.6814C9.23971 29.5542 8.96268 29.5392 6.71641 29.5392C4.64237 29.5392 4.17814 29.5168 3.94602 29.4269C3.57914 29.2698 3.33953 29.0377 3.17481 28.6784C3.04752 28.4089 3.03254 28.1469 3.03254 25.8864C3.03254 23.1467 3.02506 23.0719 2.56832 22.6003C2.22389 22.2485 1.64735 22.0913 1.13071 22.211Z" fill="#4181E0"/>
<path d="M30.6391 22.2337C30.2198 22.346 29.8754 22.6454 29.6807 23.0646C29.5534 23.3341 29.5384 23.5961 29.5384 25.8716C29.5384 28.1472 29.5235 28.4092 29.3962 28.6787C29.2314 29.0379 28.9918 29.27 28.625 29.4272C28.3928 29.517 27.9286 29.5395 25.8546 29.5395C23.6083 29.5395 23.3313 29.5544 23.0617 29.6817C22.2531 30.0485 21.9386 30.9991 22.3654 31.8225C22.5076 32.092 22.6724 32.2417 23.0243 32.4288C23.2639 32.5636 23.4885 32.571 26.0193 32.571C28.4303 32.571 28.8121 32.5486 29.2389 32.4288C30.8038 31.9947 31.9943 30.812 32.4361 29.2401C32.5559 28.8134 32.5709 28.4316 32.5709 26.0213C32.5709 23.3715 32.5634 23.2817 32.4137 22.9898C32.0542 22.3311 31.3729 22.0391 30.6391 22.2337Z" fill="#4181E0"/>
</svg>
