<svg width="17" height="17" viewBox="0 0 17 17" fill="none" xmlns="http://www.w3.org/2000/svg">
<path d="M14.3438 10.625H13.2813C13.1404 10.625 13.0053 10.681 12.9056 10.7806C12.806 10.8802 12.75 11.0154 12.75 11.1562V14.875H2.12503V4.25H6.90628C7.04718 4.25 7.1823 4.19403 7.28193 4.0944C7.38156 3.99477 7.43753 3.85965 7.43753 3.71875V2.65625C7.43753 2.51535 7.38156 2.38023 7.28193 2.2806C7.1823 2.18097 7.04718 2.125 6.90628 2.125H1.59378C1.17109 2.125 0.765715 2.29291 0.466829 2.5918C0.167943 2.89068 3.05176e-05 3.29606 3.05176e-05 3.71875L3.05176e-05 15.4062C3.05176e-05 15.8289 0.167943 16.2343 0.466829 16.5332C0.765715 16.8321 1.17109 17 1.59378 17H13.2813C13.704 17 14.1093 16.8321 14.4082 16.5332C14.7071 16.2343 14.875 15.8289 14.875 15.4062V11.1562C14.875 11.0154 14.8191 10.8802 14.7194 10.7806C14.6198 10.681 14.4847 10.625 14.3438 10.625ZM16.2032 0H11.9532C11.2436 0 10.889 0.860293 11.3887 1.36133L12.5751 2.54768L4.48245 10.6373C4.40816 10.7113 4.34922 10.7993 4.309 10.8961C4.26878 10.993 4.24807 11.0969 4.24807 11.2017C4.24807 11.3066 4.26878 11.4105 4.309 11.5073C4.34922 11.6042 4.40816 11.6922 4.48245 11.7662L5.23517 12.5176C5.3092 12.5919 5.39717 12.6508 5.49403 12.691C5.59089 12.7313 5.69474 12.752 5.79962 12.752C5.9045 12.752 6.00835 12.7313 6.10521 12.691C6.20207 12.6508 6.29004 12.5919 6.36407 12.5176L14.4527 4.42664L15.6387 5.61133C16.1367 6.10938 17 5.76074 17 5.04688V0.796875C17 0.585531 16.9161 0.382842 16.7666 0.233399C16.6172 0.0839562 16.4145 0 16.2032 0Z" fill="#0C6F8E"/>
</svg>
