<svg width="13" height="18" viewBox="0 0 13 18" fill="none" xmlns="http://www.w3.org/2000/svg">
<path d="M7.65468 0.0208664C9.07301 0.200497 10.2444 0.769327 11.2323 1.75355C12.2989 2.81263 12.8827 4.09249 12.9875 5.58568C13.0586 6.62604 12.8378 7.55413 12.224 8.78909C11.5691 10.1064 10.4539 11.652 9.30877 12.8196L9.00939 13.1227L9.23019 13.1676C9.90006 13.3023 10.6523 13.553 11.2061 13.8262C11.7899 14.1144 12.2315 14.5448 12.37 14.9676C12.4673 15.2521 12.4373 15.6338 12.2989 15.9182C12.0818 16.3598 11.4307 16.865 10.7383 17.1344C10.1321 17.3665 8.96822 17.6097 8.04762 17.692C7.4975 17.7444 6.46836 17.7444 5.9145 17.6958C4.93776 17.606 3.67286 17.3365 3.0928 17.097C2.76348 16.9585 2.32189 16.6816 2.07864 16.4571C1.30398 15.7423 1.37883 14.7618 2.26201 14.1144C2.78593 13.7252 3.74771 13.3584 4.72445 13.1676L4.9415 13.1264L4.49617 12.6474C2.37054 10.3459 1.1019 8.12296 0.940977 6.4015C0.84742 5.40604 1.09441 4.21599 1.59588 3.25048C2.49403 1.51779 4.14439 0.342705 6.08291 0.0508041C6.42346 -0.00158882 7.35155 -0.0165577 7.65468 0.0208664ZM6.3037 1.30822C5.74236 1.38681 5.05751 1.62631 4.58224 1.91073C3.10777 2.79017 2.20962 4.32452 2.20588 5.96365C2.20588 6.65598 2.34434 7.15744 2.80839 8.09676C3.37348 9.24191 4.28286 10.533 5.44671 11.8391C5.82843 12.2694 6.90996 13.3547 6.95486 13.3547C7.011 13.3547 7.83431 12.5763 8.20479 12.1759C9.39485 10.8885 10.4315 9.45896 11.0377 8.26891C11.5317 7.29591 11.7226 6.65223 11.7188 5.96739C11.7113 3.83428 10.2107 1.94815 8.08504 1.39804C7.58731 1.26705 6.85008 1.22963 6.3037 1.30822ZM7.75198 14.3389C7.5948 14.4699 7.35529 14.6645 7.21308 14.773L6.96235 14.9714L6.70787 14.7693C6.56941 14.6608 6.33364 14.4624 6.18021 14.3314L5.89953 14.0882L5.45046 14.1518C4.14813 14.3389 3.22004 14.657 2.78968 15.0537C2.64747 15.1847 2.62127 15.2333 2.62127 15.3494C2.62127 15.8321 3.9236 16.3785 5.60389 16.5955C6.19892 16.6741 7.5948 16.6854 8.1786 16.6143C9.44724 16.4646 10.525 16.1352 11.0901 15.7236C11.4419 15.4654 11.4456 15.2595 11.1013 15.0013C10.6148 14.6383 9.87386 14.3876 8.70252 14.1818C8.06259 14.0732 8.0813 14.0695 7.75198 14.3389Z" fill="#0C6F8E"/>
</svg>
