<svg width="24" height="25" viewBox="0 0 24 25" fill="none" xmlns="http://www.w3.org/2000/svg">
<path d="M18 11.4668C17.59 11.4668 17.25 11.1268 17.25 10.7168V8.7168C17.25 5.5668 16.36 3.4668 12 3.4668C7.64 3.4668 6.75 5.5668 6.75 8.7168V10.7168C6.75 11.1268 6.41 11.4668 6 11.4668C5.59 11.4668 5.25 11.1268 5.25 10.7168V8.7168C5.25 5.8168 5.95 1.9668 12 1.9668C18.05 1.9668 18.75 5.8168 18.75 8.7168V10.7168C18.75 11.1268 18.41 11.4668 18 11.4668Z" fill="#1C1C1E" fill-opacity="0.72"/>
<path d="M12 19.9668C10.21 19.9668 8.75 18.5068 8.75 16.7168C8.75 14.9268 10.21 13.4668 12 13.4668C13.79 13.4668 15.25 14.9268 15.25 16.7168C15.25 18.5068 13.79 19.9668 12 19.9668ZM12 14.9668C11.04 14.9668 10.25 15.7568 10.25 16.7168C10.25 17.6768 11.04 18.4668 12 18.4668C12.96 18.4668 13.75 17.6768 13.75 16.7168C13.75 15.7568 12.96 14.9668 12 14.9668Z" fill="#1C1C1E" fill-opacity="0.72"/>
<path d="M17 23.4668H7C2.59 23.4668 1.25 22.1268 1.25 17.7168V15.7168C1.25 11.3068 2.59 9.9668 7 9.9668H17C21.41 9.9668 22.75 11.3068 22.75 15.7168V17.7168C22.75 22.1268 21.41 23.4668 17 23.4668ZM7 11.4668C3.42 11.4668 2.75 12.1468 2.75 15.7168V17.7168C2.75 21.2868 3.42 21.9668 7 21.9668H17C20.58 21.9668 21.25 21.2868 21.25 17.7168V15.7168C21.25 12.1468 20.58 11.4668 17 11.4668H7Z" fill="#1C1C1E" fill-opacity="0.72"/>
</svg>
