<svg width="24" height="25" viewBox="0 0 24 25" fill="none" xmlns="http://www.w3.org/2000/svg">
<path d="M17 21.9668H7C3.35 21.9668 1.25 19.8668 1.25 16.2168V9.2168C1.25 5.5668 3.35 3.4668 7 3.4668H17C20.65 3.4668 22.75 5.5668 22.75 9.2168V16.2168C22.75 19.8668 20.65 21.9668 17 21.9668ZM7 4.9668C4.14 4.9668 2.75 6.3568 2.75 9.2168V16.2168C2.75 19.0768 4.14 20.4668 7 20.4668H17C19.86 20.4668 21.25 19.0768 21.25 16.2168V9.2168C21.25 6.3568 19.86 4.9668 17 4.9668H7Z" fill="#1C1C1E" fill-opacity="0.72"/>
<path d="M11.9998 13.5868C11.1598 13.5868 10.3098 13.3268 9.65978 12.7968L6.52978 10.2968C6.20978 10.0368 6.14978 9.56677 6.40978 9.24677C6.66978 8.92677 7.13978 8.86677 7.45978 9.12677L10.5898 11.6268C11.3498 12.2368 12.6398 12.2368 13.3998 11.6268L16.5298 9.12677C16.8498 8.86677 17.3298 8.91677 17.5798 9.24677C17.8398 9.56677 17.7898 10.0468 17.4598 10.2968L14.3298 12.7968C13.6898 13.3268 12.8398 13.5868 11.9998 13.5868Z" fill="#1C1C1E" fill-opacity="0.72"/>
</svg>
