<svg width="22" height="22" viewBox="0 0 22 22" fill="none" xmlns="http://www.w3.org/2000/svg">
<path d="M1.93769 0.0525503C0.996727 0.210253 0.208212 1.01454 0.0452516 1.9923C0.0084542 2.21834 -0.00731611 3.28021 0.00319743 5.14636L0.0189677 7.95874L0.14513 8.27414C0.450023 9.03112 0.965187 9.51474 1.72216 9.74078C1.96923 9.81438 2.39503 9.82489 4.90251 9.82489C6.66353 9.82489 7.88836 9.80386 8.03029 9.76707C8.8556 9.57782 9.57578 8.85764 9.76502 8.03233C9.80182 7.8904 9.82285 6.66557 9.82285 4.90455C9.82285 2.39707 9.81233 1.97127 9.73874 1.7242C9.5127 0.967229 9.03433 0.452065 8.2721 0.147172L7.95669 0.0210094L5.09175 0.0104961C3.51472 0.0104961 2.09539 0.0262661 1.93769 0.0525503Z" fill="#4181E0"/>
<path d="M13.9599 0.0472946C13.3659 0.147174 12.6563 0.630796 12.3619 1.1407C12.2883 1.26161 12.1831 1.50868 12.1306 1.68215C12.036 1.98179 12.0307 2.20783 12.0307 4.8993C12.0307 6.66557 12.0517 7.8904 12.0885 8.03233C12.2778 8.85764 12.9979 9.57782 13.8233 9.76707C13.9652 9.80386 15.19 9.82489 16.9563 9.82489C19.6478 9.82489 19.8738 9.81963 20.1734 9.72501C20.3469 9.67244 20.594 9.56731 20.7149 9.49371C21.2458 9.18356 21.7032 8.48967 21.8083 7.84834C21.8398 7.67487 21.8609 6.34491 21.8609 4.88352C21.8609 1.98179 21.8398 1.761 21.5612 1.24584C21.2301 0.630796 20.5572 0.157687 19.8633 0.0472946C19.4585 -0.0157862 14.3384 -0.0157862 13.9599 0.0472946Z" fill="#4181E0"/>
<path d="M1.67485 12.1326C1.27008 12.264 1.07032 12.3744 0.79697 12.6268C0.497334 12.9054 0.302833 13.184 0.14513 13.5835L0.0189677 13.8989L0.00319743 16.7113C-0.00731611 18.5774 0.0084542 19.6393 0.0452516 19.8653C0.213468 20.8746 1.00724 21.6579 2.0218 21.8103C2.26361 21.8471 3.37279 21.8629 5.17586 21.8524L7.95669 21.8366L8.2721 21.7105C9.02908 21.4056 9.5127 20.8904 9.73874 20.1334C9.85965 19.7181 9.8649 14.2143 9.744 13.7465C9.53373 12.9527 8.83458 12.2746 8.03029 12.0906C7.88836 12.0538 6.66879 12.038 4.88148 12.038C2.23207 12.038 1.93769 12.0485 1.67485 12.1326Z" fill="#4181E0"/>
<path d="M12.4513 14.1775C11.9466 14.4299 11.8835 15.0922 12.3198 15.5022L12.4618 15.6337L16.8827 15.6494C21.2511 15.6599 21.3089 15.6599 21.4824 15.5548C21.7137 15.4129 21.8819 15.0396 21.8346 14.7715C21.782 14.4982 21.6611 14.3195 21.4403 14.1933C21.2458 14.0829 21.209 14.0829 16.9405 14.0829C12.9454 14.0829 12.6195 14.0882 12.4513 14.1775Z" fill="#4181E0"/>
<path d="M12.4565 18.2725C12.1621 18.4249 12.057 18.6142 12.057 18.9874C12.057 19.3501 12.1464 19.5183 12.425 19.6918C12.5722 19.7812 12.8035 19.7864 16.9195 19.7864C20.9357 19.7864 21.2669 19.7812 21.4246 19.6971C21.6927 19.5499 21.8293 19.3081 21.8293 18.9874C21.8293 18.6878 21.74 18.5143 21.4719 18.3198C21.33 18.2094 21.2774 18.2094 16.9826 18.1936C12.9244 18.1831 12.6247 18.1884 12.4565 18.2725Z" fill="#4181E0"/>
</svg>
