<svg width="22" height="23" viewBox="0 0 22 23" fill="none" xmlns="http://www.w3.org/2000/svg">
<path d="M4.71715 1.03729C4.40003 1.23053 4.36039 1.40891 4.36039 2.70711V3.86161H2.44778C0.327058 3.86161 0.297328 3.86657 0.0991296 4.18369C3.05176e-05 4.34225 3.05176e-05 4.40666 3.05176e-05 13.4049C3.05176e-05 22.304 3.05176e-05 22.4724 0.0991296 22.626C0.302283 22.963 -0.614384 22.9382 11 22.9382C22.6144 22.9382 21.6978 22.963 21.9009 22.626C22 22.4724 22 22.304 22 13.4049C22 4.40666 22 4.34225 21.9009 4.18369C21.7027 3.86657 21.673 3.86161 19.5523 3.86161H17.6397V2.70711C17.6397 1.68143 17.6298 1.53279 17.5406 1.34945C17.2928 0.799454 16.4653 0.789543 16.1928 1.33459C16.1135 1.48324 16.1036 1.66161 16.1036 2.68233V3.86161H13.9235H11.7433V2.66747C11.7433 1.33459 11.7185 1.22062 11.4212 1.03729C11.2032 0.903507 10.7969 0.903507 10.5789 1.03729C10.2816 1.22062 10.2568 1.33459 10.2568 2.66747V3.86161H8.07661H5.89643V2.68233C5.89643 1.36927 5.87661 1.26522 5.55454 1.05216C5.33156 0.903507 4.95003 0.898552 4.71715 1.03729ZM4.3703 5.8436C4.38517 6.23999 4.40994 6.36387 4.48922 6.47288C4.75183 6.81972 5.10363 6.91387 5.4703 6.74044C5.78742 6.58188 5.89643 6.34405 5.89643 5.77918V5.3481H8.07661H10.2568V5.83864C10.2568 6.25981 10.2717 6.34405 10.3708 6.48774C10.678 6.93864 11.3221 6.93864 11.6343 6.48774C11.7284 6.34405 11.7433 6.25981 11.7433 5.83864V5.3481H13.9235H16.1036V5.77918C16.1036 6.34405 16.2126 6.58188 16.5298 6.74044C16.8964 6.91387 17.2482 6.81972 17.5108 6.47288C17.5901 6.36387 17.6149 6.23999 17.6298 5.8436L17.6496 5.3481H19.0816H20.5135V6.80981V8.27152H11H1.48652V6.80981V5.3481H2.9185H4.35048L4.3703 5.8436ZM20.5135 15.6049V21.4517H11H1.48652V15.6049V9.75801H11H20.5135V15.6049Z" fill="#0C6F8E"/>
<path d="M3.31984 10.5411C3.2257 10.5857 3.09687 10.6996 3.03741 10.7938C2.9284 10.9523 2.92345 11.0068 2.92345 11.9037C2.92345 12.7609 2.93336 12.855 3.0275 13.0235C3.23065 13.3852 3.2802 13.4001 4.36038 13.4149C5.48516 13.4298 5.59417 13.4001 5.78741 13.0235C5.89642 12.8154 5.90137 12.7609 5.88651 11.8789C5.87164 10.8532 5.85678 10.8037 5.50002 10.5609C5.34642 10.4568 5.28696 10.4519 4.41489 10.4519C3.63696 10.4519 3.46849 10.4667 3.31984 10.5411Z" fill="#0C6F8E"/>
<path d="M7.70499 10.546C7.35814 10.759 7.35814 10.7541 7.34327 11.8739C7.32841 12.8847 7.32841 12.8946 7.45228 13.078C7.66039 13.3901 7.79417 13.4248 8.81985 13.4248C9.64237 13.4248 9.74147 13.4149 9.90994 13.3208C10.2469 13.1325 10.2816 13.0185 10.2964 12.0126C10.3113 11.1653 10.3063 11.1108 10.1973 10.8978C10.1329 10.7739 10.009 10.6253 9.9149 10.5658C9.75634 10.4568 9.70183 10.4518 8.80003 10.4518C7.9676 10.4518 7.83381 10.4617 7.70499 10.546Z" fill="#0C6F8E"/>
<path d="M12.0852 10.5559C11.7532 10.7491 11.7185 10.8631 11.7036 11.864C11.6888 12.7113 11.6937 12.7658 11.8027 12.9789C11.8671 13.1027 11.991 13.2514 12.0852 13.3108C12.2437 13.4198 12.3032 13.4248 13.1653 13.4248C14.1514 13.4248 14.2951 13.3951 14.518 13.1572C14.6419 13.0235 14.6419 13.0086 14.6568 12.0027C14.6716 10.9919 14.6716 10.987 14.5478 10.7987C14.3397 10.4865 14.2059 10.4518 13.1703 10.4518C12.3428 10.4518 12.2487 10.4617 12.0852 10.5559Z" fill="#0C6F8E"/>
<path d="M16.5 10.541C16.391 10.5955 16.282 10.7144 16.2126 10.8532C16.1036 11.0613 16.0987 11.1158 16.1135 11.9978C16.1284 13.0235 16.1433 13.073 16.5 13.3108C16.6536 13.4198 16.7131 13.4248 17.5851 13.4248C18.6207 13.4248 18.7595 13.3901 18.9626 13.0829C19.0716 12.9244 19.0766 12.8698 19.0766 11.973C19.0766 11.1158 19.0667 11.0217 18.9725 10.8532C18.7694 10.4915 18.7198 10.4766 17.6397 10.4617C16.7775 10.4518 16.6536 10.4568 16.5 10.541Z" fill="#0C6F8E"/>
<path d="M3.31984 14.2076C3.2257 14.2522 3.09687 14.3661 3.03741 14.4603C2.9284 14.6188 2.92345 14.6733 2.92345 15.5702C2.92345 16.4274 2.93336 16.5215 3.0275 16.69C3.23065 17.0517 3.2802 17.0666 4.36038 17.0814C5.48516 17.0963 5.59417 17.0666 5.78741 16.69C5.89642 16.4819 5.90137 16.4274 5.88651 15.5454C5.87164 14.5197 5.85678 14.4702 5.50002 14.2274C5.34642 14.1233 5.28696 14.1184 4.41489 14.1184C3.63696 14.1184 3.46849 14.1332 3.31984 14.2076Z" fill="#0C6F8E"/>
<path d="M7.70499 14.2126C7.35814 14.4257 7.35814 14.4207 7.34327 15.5405C7.32841 16.5513 7.32841 16.5613 7.45228 16.7446C7.66039 17.0567 7.79417 17.0914 8.81985 17.0914C9.64237 17.0914 9.74147 17.0815 9.90994 16.9874C10.2469 16.7991 10.2816 16.6851 10.2964 15.6793C10.3113 14.832 10.3063 14.7775 10.1973 14.5644C10.1329 14.4405 10.009 14.2919 9.9149 14.2324C9.75634 14.1234 9.70183 14.1185 8.80003 14.1185C7.9676 14.1185 7.83381 14.1284 7.70499 14.2126Z" fill="#0C6F8E"/>
<path d="M12.0852 14.2224C11.7532 14.4157 11.7185 14.5296 11.7036 15.5305C11.6888 16.3778 11.6937 16.4323 11.8027 16.6405C12.0108 17.0468 12.0703 17.0666 13.096 17.0814C14.1018 17.1013 14.2752 17.0715 14.4933 16.8436L14.6419 16.69L14.6568 15.6693C14.6716 14.6585 14.6716 14.6535 14.5478 14.4652C14.3397 14.1531 14.2059 14.1184 13.1703 14.1184C12.3428 14.1184 12.2487 14.1283 12.0852 14.2224Z" fill="#0C6F8E"/>
<path d="M16.5 14.2076C16.4059 14.2622 16.2771 14.391 16.2126 14.495C16.1086 14.6784 16.1036 14.7279 16.1135 15.6396C16.1284 16.695 16.1433 16.7347 16.5 16.9775C16.6536 17.0865 16.7131 17.0914 17.5852 17.0914C18.6208 17.0914 18.7595 17.0567 18.9626 16.7495C19.0717 16.591 19.0766 16.5365 19.0766 15.6396C19.0766 14.7824 19.0667 14.6883 18.9726 14.5198C18.7694 14.1581 18.7198 14.1432 17.6397 14.1284C16.7726 14.1185 16.6536 14.1234 16.5 14.2076Z" fill="#0C6F8E"/>
<path d="M3.31984 17.8742C3.2257 17.9188 3.09687 18.0328 3.03741 18.1269C2.9284 18.2855 2.92345 18.34 2.92345 19.2368C2.92345 20.094 2.93336 20.1882 3.0275 20.3566C3.23065 20.7183 3.2802 20.7332 4.36038 20.7481C5.48516 20.7629 5.59417 20.7332 5.78741 20.3566C5.89642 20.1485 5.90137 20.094 5.88651 19.212C5.87164 18.1864 5.85678 18.1368 5.50002 17.894C5.34642 17.79 5.28696 17.785 4.41489 17.785C3.63696 17.785 3.46849 17.7999 3.31984 17.8742Z" fill="#0C6F8E"/>
<path d="M7.70499 17.8791C7.35814 18.0922 7.35814 18.0872 7.34327 19.207C7.32841 20.2178 7.32841 20.2278 7.45228 20.4111C7.66039 20.7232 7.79417 20.7579 8.81985 20.7579C9.64237 20.7579 9.74147 20.748 9.90994 20.6539C10.2469 20.4656 10.2816 20.3516 10.2964 19.3458C10.3113 18.4985 10.3063 18.444 10.1973 18.2309C10.1329 18.107 10.009 17.9584 9.9149 17.8989C9.75634 17.7899 9.70183 17.785 8.80003 17.785C7.9676 17.785 7.83381 17.7949 7.70499 17.8791Z" fill="#0C6F8E"/>
<path d="M12.0852 17.8891C11.7532 18.0823 11.7185 18.1963 11.7036 19.1972C11.6888 20.0445 11.6937 20.099 11.8027 20.3071C12.0108 20.7134 12.0703 20.7332 13.096 20.7481C14.1018 20.7679 14.2752 20.7382 14.4933 20.5102L14.6419 20.3566L14.6568 19.3359C14.6716 18.3251 14.6716 18.3201 14.5478 18.1319C14.3397 17.8197 14.2059 17.785 13.1703 17.785C12.3428 17.785 12.2487 17.7949 12.0852 17.8891Z" fill="#0C6F8E"/>
<path d="M16.5 17.8742C16.4059 17.9287 16.2771 18.0575 16.2126 18.1615C16.1086 18.3449 16.1036 18.3944 16.1135 19.3061C16.1284 20.3615 16.1433 20.4012 16.5 20.644C16.6536 20.753 16.7131 20.7579 17.5852 20.7579C18.6208 20.7579 18.7595 20.7232 18.9626 20.416C19.0717 20.2575 19.0766 20.203 19.0766 19.3061C19.0766 18.4489 19.0667 18.3548 18.9726 18.1863C18.7694 17.8246 18.7198 17.8097 17.6397 17.7949C16.7726 17.785 16.6536 17.7899 16.5 17.8742Z" fill="#0C6F8E"/>
</svg>
