<svg width="23" height="23" viewBox="0 0 23 23" fill="none" xmlns="http://www.w3.org/2000/svg">
<rect x="0.51123" y="0.959351" width="21.7556" height="21.7556" rx="3.34702" fill="white"/>
<path d="M10.3873 5.98372L11.0506 5.34566C11.3315 5.07549 11.7857 5.07549 12.0636 5.34566L17.8724 10.9301C18.1533 11.2003 18.1533 11.6371 17.8724 11.9044L12.0636 17.4917C11.7827 17.7619 11.3285 17.7619 11.0506 17.4917L10.3873 16.8537C10.1034 16.5806 10.1094 16.1351 10.3992 15.8679L13.9999 12.5684H5.41215C5.01473 12.5684 4.69501 12.2608 4.69501 11.8786V10.9588C4.69501 10.5766 5.01473 10.269 5.41215 10.269H13.9999L10.3992 6.96955C10.1064 6.70225 10.1004 6.25676 10.3873 5.98372Z" fill="#4181E0"/>
</svg>
