<svg width="20" height="20" viewBox="0 0 20 20" fill="none" xmlns="http://www.w3.org/2000/svg">
<path d="M2.16958 0.074266C1.35335 0.270687 0.611314 0.886137 0.257757 1.65436C0.0264174 2.16069 0.0045929 2.34401 0.0045929 3.85427V5.24231H0.506557H1.00852V3.91538C1.00852 2.7194 1.01725 2.56226 1.09582 2.3091C1.25732 1.78094 1.66762 1.34009 2.18704 1.12621C2.41402 1.03454 2.49259 1.03018 3.83698 1.01708L5.24248 1.00399V0.502027V0.00442743L3.83698 0.0087924C2.77194 0.0087924 2.36164 0.0262523 2.16958 0.074266Z" fill="#0C6F8E"/>
<path d="M14.758 0.502027V1.00399L16.1678 1.01708C17.5079 1.03018 17.5864 1.03454 17.8134 1.12621C18.3328 1.34009 18.7431 1.78094 18.9046 2.3091C18.9832 2.56226 18.9919 2.7194 18.9919 3.91538V5.24231H19.4982H20.0002L19.9871 3.74515L19.974 2.25235L19.8562 1.93371C19.6903 1.47976 19.4939 1.16986 19.1622 0.838124C18.8304 0.506391 18.5205 0.309971 18.0666 0.144104L17.7479 0.0262523L16.2551 0.0131574L14.758 6.24657e-05V0.502027Z" fill="#0C6F8E"/>
<path d="M5.81864 3.57924C4.9282 3.80185 4.15998 4.42603 3.75841 5.26409C3.49651 5.8097 3.45287 6.09342 3.45287 7.2021V8.16675H3.95483H4.45679V7.25885C4.45679 5.99739 4.55719 5.66566 5.0897 5.13314C5.38652 4.83633 5.67897 4.6661 6.04998 4.5657C6.43846 4.46531 13.562 4.46531 13.9505 4.5657C14.3215 4.6661 14.6139 4.83633 14.9107 5.13314C15.4433 5.66566 15.5436 5.99739 15.5436 7.25885V8.16675H16.0456H16.5476V7.2021C16.5476 6.09342 16.5039 5.8097 16.242 5.26409C15.9321 4.61372 15.4302 4.11175 14.7798 3.80185C14.1251 3.48757 14.256 3.4963 9.96966 3.50067C6.44282 3.50067 6.11109 3.5094 5.81864 3.57924Z" fill="#0C6F8E"/>
<path d="M1.83786 9.99996V10.4801H10.0002H18.1626V9.99996V9.51982H10.0002H1.83786V9.99996Z" fill="#0C6F8E"/>
<path d="M3.45287 12.798C3.45287 13.9066 3.49651 14.1904 3.75841 14.736C4.06832 15.3863 4.57028 15.8883 5.22065 16.1982C5.87539 16.5125 5.75317 16.5038 10.0002 16.5038C14.2473 16.5038 14.1251 16.5125 14.7798 16.1982C15.4302 15.8883 15.9321 15.3863 16.242 14.736C16.5039 14.1904 16.5476 13.9066 16.5476 12.798V11.8333H16.0456H15.5436V12.7412C15.5436 14.0027 15.4433 14.3344 14.9107 14.8669C14.6139 15.1637 14.3215 15.334 13.9505 15.4344C13.562 15.5348 6.43846 15.5348 6.04998 15.4344C5.67897 15.334 5.38652 15.1637 5.0897 14.8669C4.55719 14.3344 4.45679 14.0027 4.45679 12.7412V11.8333H3.95483H3.45287V12.798Z" fill="#0C6F8E"/>
<path d="M0.0133388 16.2505L0.0264335 17.7477L0.144286 18.0663C0.310152 18.5203 0.506573 18.8302 0.838305 19.1619C1.17004 19.4937 1.47995 19.6901 1.9339 19.856L2.25253 19.9738L3.74969 19.9869L5.24249 20V19.498V18.9917H3.91556C2.71958 18.9917 2.56244 18.983 2.30928 18.9044C1.78112 18.7429 1.34027 18.3326 1.12639 17.8132C1.03473 17.5862 1.03036 17.5076 1.01727 16.1633L1.00417 14.7578H0.502208H0.000244141L0.0133388 16.2505Z" fill="#0C6F8E"/>
<path d="M18.9832 16.1633C18.9701 17.5076 18.9657 17.5862 18.8741 17.8132C18.6602 18.3326 18.2193 18.7429 17.6912 18.9044C17.438 18.983 17.2809 18.9917 16.0849 18.9917H14.758V19.498V20L16.2551 19.9869L17.7479 19.9738L18.0666 19.856C18.5205 19.6901 18.8304 19.4937 19.1622 19.1619C19.4939 18.8302 19.6903 18.5203 19.8562 18.0663L19.974 17.7477L19.9871 16.2505L20.0002 14.7578H19.4982H18.9963L18.9832 16.1633Z" fill="#0C6F8E"/>
</svg>
