<svg width="29" height="29" viewBox="0 0 29 29" fill="none" xmlns="http://www.w3.org/2000/svg">
<path d="M9.85175 0.0567741C7.30597 0.272848 5.00829 1.35322 3.16368 3.22227C0.952303 5.45864 -0.137205 8.27842 0.0138157 11.3899C0.272709 16.5325 3.76776 20.5839 8.8809 21.6643C9.81939 21.8695 12.1494 21.8371 13.1958 21.6102C14.2853 21.3726 15.4719 20.908 16.3888 20.3678L17.1115 19.9573L21.297 24.1599C23.6054 26.4827 25.7089 28.5138 25.9678 28.6867C26.3562 28.9352 26.5719 29 27.0466 29C28.4813 29 29.3874 27.6495 28.8372 26.3207C28.7186 26.0506 27.2623 24.5164 24.3066 21.5454L19.9378 17.1699L20.585 15.8735C21.5451 13.972 21.7069 13.2698 21.7069 10.9578C21.7177 9.30478 21.6853 8.94825 21.4696 8.14878C21.1783 7.07921 20.5634 5.72874 19.9701 4.83203C19.4416 4.02175 18.2442 2.75771 17.4136 2.13109C15.9789 1.06152 13.7891 0.197224 12.171 0.0891857C11.7287 0.0567741 11.2433 0.0243626 11.0923 0.00275612C10.9413 -0.00804901 10.3911 0.0135593 9.85175 0.0567741ZM12.3867 4.05416C12.7104 4.11898 13.4331 4.38907 13.994 4.65917C16.378 5.80437 17.8882 8.24601 17.8882 10.9469C17.8882 14.0152 15.8279 16.7486 12.8182 17.6669C11.7934 17.9802 10.1969 18.0018 9.15058 17.7209C6.20567 16.9214 4.08059 14.3177 3.89721 11.2927C3.71383 8.25681 5.64474 5.36141 8.55728 4.30264C9.81939 3.84889 10.8981 3.77326 12.3867 4.05416Z" fill="#4181E0"/>
</svg>
