<svg width="24" height="24" viewBox="0 0 24 24" fill="none" xmlns="http://www.w3.org/2000/svg">
<path d="M10.8569 0.0349255C8.99589 0.247791 7.71262 0.612703 6.35636 1.31212C4.81765 2.10276 3.37017 3.32522 2.36058 4.68755L1.9166 5.28358L1.88011 4.88826C1.8497 4.53551 1.81929 4.46861 1.62467 4.2679C1.43613 4.07937 1.36315 4.04896 1.05298 4.02463C0.761046 4.00639 0.663736 4.02463 0.493443 4.14627C0.0737947 4.42603 0.0737947 4.42603 0.0251397 6.72498C-0.0174333 8.78673 -0.0174333 8.80498 0.116368 9.07866C0.262333 9.38276 0.615081 9.60778 0.943502 9.60778C1.09555 9.60778 4.20338 8.33667 4.82373 8.02042C5.46841 7.692 5.45625 6.69457 4.80549 6.37223C4.50139 6.22018 4.25204 6.23843 3.76549 6.44521C3.53438 6.54252 3.34584 6.60942 3.34584 6.59118C3.34584 6.57293 3.48572 6.35398 3.65601 6.10463C5.09742 4.02463 7.25648 2.60756 9.82911 2.05411C10.4069 1.93247 10.6562 1.91422 11.7692 1.91422C12.8518 1.92031 13.1376 1.93855 13.6607 2.05411C17.4923 2.88732 20.3811 5.67282 21.3178 9.42533C21.7496 11.1708 21.6583 13.2143 21.0684 14.9112C20.0466 17.8365 17.772 20.1051 14.8831 21.0721C13.6485 21.4857 13.1985 21.5526 11.7388 21.5526C10.6137 21.5526 10.3461 21.5343 9.81695 21.4188C5.9428 20.5734 3.03566 17.7332 2.10514 13.8894C1.95917 13.2873 1.72806 13.0623 1.23543 13.0319C0.821864 13.0015 0.560344 13.1292 0.365724 13.4515C0.213678 13.707 0.213678 14.0232 0.371806 14.6314C1.11379 17.4716 2.81672 19.8861 5.22514 21.4918C6.59356 22.404 8.21741 23.0365 9.94466 23.3346C10.784 23.4744 12.6937 23.4744 13.533 23.3285C16.0752 22.8906 18.1065 21.8871 19.8459 20.1963C21.7435 18.3657 22.8808 16.1823 23.3309 13.5306C23.4829 12.667 23.4829 10.8363 23.3309 9.94837C22.5767 5.39305 19.4628 1.81691 15.0838 0.491066C13.8614 0.120071 11.9456 -0.0867119 10.8569 0.0349255Z" fill="#366CBD"/>
<path d="M11.3131 5.52072C11.1975 5.57545 11.0394 5.71534 10.9664 5.83089L10.8265 6.03767V9.01171C10.8265 12.2838 10.8144 12.1925 11.2036 12.4845C11.4712 12.6852 15.7164 15.1301 16.0448 15.276C16.5009 15.4828 17.0361 15.2943 17.2368 14.8685C17.3767 14.5766 17.3402 14.1326 17.1639 13.8894C17.0848 13.7738 16.2759 13.2751 14.8467 12.448L12.6511 11.1769V8.6103V6.03767L12.5112 5.83089C12.347 5.58153 12.0308 5.41124 11.7388 5.41124C11.6233 5.41124 11.4287 5.4599 11.3131 5.52072Z" fill="#366CBD"/>
</svg>
