<svg width="30" height="20" viewBox="0 0 30 20" fill="none" xmlns="http://www.w3.org/2000/svg">
<path d="M3.08069 0.129951C1.95622 0.316254 0.944867 1.0415 0.412574 2.0329C-0.0132613 2.84465 4.60462e-05 2.52527 4.60462e-05 9.99069C4.60462e-05 15.959 0.0133534 16.8174 0.106505 17.1833C0.419227 18.3876 1.37736 19.379 2.62825 19.7716L3.094 19.918H15.0041H26.9141L27.3999 19.7583C28.531 19.3857 29.4425 18.4874 29.8284 17.363L29.9748 16.9238L29.9948 10.2036C30.0081 4.25523 30.0014 3.43017 29.9083 3.00434C29.6288 1.73349 28.6973 0.708821 27.4132 0.243064L26.9807 0.0900294L15.2037 0.0833757C8.72966 0.0767221 3.27365 0.0966831 3.08069 0.129951ZM26.974 1.41411C27.6793 1.62703 28.3114 2.23251 28.5842 2.95111C28.704 3.27048 28.7106 3.58321 28.7106 10.004V16.7242L28.4977 17.17C28.2449 17.7089 27.819 18.1414 27.2934 18.4009L26.9141 18.5872H15.0041H3.094L2.71474 18.4076C2.20906 18.1747 1.79654 17.7755 1.52374 17.2765L1.29751 16.8573V9.97073V3.08418L1.48381 2.71823C1.80319 2.09278 2.35544 1.62037 3.01416 1.42076C3.44665 1.28104 26.5216 1.28104 26.974 1.41411Z" fill="#5C5C5D"/>
<path d="M7.78483 4.22196C6.3676 4.60122 5.42943 6.06503 5.65565 7.53549C5.7355 8.06778 6.0083 8.67992 6.34098 9.07248L6.56721 9.33198L6.11476 9.65135C5.31632 10.2103 4.65095 11.1617 4.32492 12.1997C4.23177 12.5058 4.16523 12.9183 4.14527 13.4107C4.112 14.076 4.11866 14.1825 4.25173 14.4486C4.6576 15.2804 5.76877 15.8659 7.37895 16.0988C8.26389 16.2252 9.92731 16.1453 10.7258 15.9391C11.9766 15.613 12.7751 15.0541 13.008 14.3555C13.1543 13.9164 13.1144 13.0248 12.9082 12.2995C12.6021 11.2216 11.8236 10.1238 10.9653 9.57151L10.586 9.32532L10.8189 9.0991C10.952 8.97268 11.1582 8.65996 11.2913 8.39381C11.4976 7.97463 11.5308 7.8349 11.5641 7.28265C11.5907 6.77032 11.5708 6.57736 11.451 6.19145C11.298 5.68577 10.8788 5.06032 10.5062 4.77421C9.7277 4.18204 8.70969 3.97577 7.78483 4.22196ZM9.2819 5.53939C9.914 5.83215 10.2533 6.32452 10.2999 7.0165C10.3332 7.52883 10.1469 8.00124 9.75431 8.36054C8.80284 9.23883 7.31907 8.79968 6.94647 7.52883C6.5539 6.18479 8.01105 4.94056 9.2819 5.53939ZM9.31517 10.177C9.8142 10.2901 10.3531 10.6294 10.7989 11.0952C11.4044 11.7473 11.7371 12.4925 11.817 13.3974C11.8569 13.8365 11.8502 13.8764 11.6839 14.076C11.278 14.5551 10.3531 14.8213 8.91595 14.8745C7.33903 14.9277 6.14137 14.6682 5.60908 14.1492C5.41612 13.9629 5.38951 13.8964 5.38951 13.5704C5.38951 12.1864 6.3809 10.7093 7.61183 10.2568C8.16409 10.0572 8.66311 10.0306 9.31517 10.177Z" fill="#5C5C5D"/>
<path d="M16.2682 4.88067C16.1019 5.04036 16.042 5.41962 16.1418 5.67911C16.2549 5.97187 16.3148 5.97852 20.8526 5.97852C23.8601 5.97852 25.1908 5.95856 25.3039 5.90533C25.4569 5.83214 25.5568 5.69907 25.6433 5.42627C25.6965 5.25993 25.5235 4.87401 25.3638 4.78752C25.2706 4.73429 23.8534 4.71433 20.826 4.71433H16.4279L16.2682 4.88067Z" fill="#5C5C5D"/>
<path d="M16.2683 9.53824C16.042 9.75781 16.0354 10.2169 16.255 10.4232L16.408 10.5696H20.846H25.2773L25.457 10.4165C25.6965 10.2103 25.7098 9.77777 25.4836 9.53824L25.3306 9.3719H20.8793H16.428L16.2683 9.53824Z" fill="#5C5C5D"/>
<path d="M16.2683 14.1958C16.0421 14.4154 16.0421 14.8146 16.2616 15.0741L16.4213 15.2604H20.8527H25.284L25.457 15.0807C25.6965 14.8479 25.7032 14.4287 25.4836 14.1958L25.3306 14.0295H20.8793H16.428L16.2683 14.1958Z" fill="#5C5C5D"/>
</svg>
